<?xml version="1.0" encoding="utf-8"?>
<!-- Generator: Adobe Illustrator 27.5.0, SVG Export Plug-In . SVG Version: 6.00 Build 0)  -->
<svg version="1.1" xmlns="http://www.w3.org/2000/svg" xmlns:xlink="http://www.w3.org/1999/xlink" x="0px" y="0px"
	 viewBox="0 0 800 1200" style="enable-background:new 0 0 800 1200;" xml:space="preserve">
<g id="Background">
	
		<rect x="-200" y="200" transform="matrix(-1.836970e-16 1 -1 -1.836970e-16 1000 200)" style="fill:#E5E5E5;" width="1200" height="800"/>
</g>
<g id="Graphic_Elements">
	<g>
		<g>
			<path style="fill:#E5E5E5;stroke:#000000;stroke-width:2;stroke-miterlimit:10;" d="M536.943,369.067v579.59
				c-91.07,9.05-182.82,9.05-273.89,0v-579.59c0-22.18,7.13-43.15,19.59-60.4s30.24-30.79,51.55-38.12h131.61
				C508.413,285.197,536.943,324.707,536.943,369.067z"/>
			<polygon style="fill:#E5E5E5;stroke:#000000;stroke-width:2;stroke-miterlimit:10;" points="465.802,254.607 465.802,270.547 
				334.193,270.547 334.193,254.607 401.873,254.397 			"/>
			<path style="fill:#E5E5E5;stroke:#000000;stroke-width:2;stroke-miterlimit:10;" d="M536.943,948.657v18.95
				c0,9.55-1.91,18.91-5.51,27.55c-3.61,8.65-8.91,16.6-15.69,23.32c-11.33,11.24-26.09,18.36-41.94,20.26l-31.03,3.7
				c-2.82,0.34-21.97,1.48-24.81,1.48h-35.93c-2.83,0-21.99-1.14-24.809-1.48l-31.03-3.7c-7.92-0.95-15.57-3.2-22.66-6.63
				c-7.09-3.42-13.61-8.01-19.28-13.63c-13.57-13.45-21.2-31.77-21.2-50.87v-18.95C354.123,957.707,445.873,957.707,536.943,948.657
				z"/>
			<path style="fill:#E5E5E5;stroke:#000000;stroke-width:2;stroke-miterlimit:10;" d="M480.572,179.307v75.3h-14.77l-63.93-0.21
				l-67.68,0.21h-14.77v-75.3c0-8.71,6.01-16.27,14.49-18.24c7.11-1.65,14.31-2.9,21.56-3.73c7.24-0.83,14.53-1.25,21.84-1.25h45.37
				c14.61,0,29.17,1.67,43.41,4.98c4.24,0.99,7.86,3.37,10.42,6.59C479.072,170.888,480.572,174.957,480.572,179.307z"/>
		</g>
	</g>
</g>
</svg>
