<?xml version="1.0" encoding="utf-8"?>
<!-- Generator: Adobe Illustrator 27.5.0, SVG Export Plug-In . SVG Version: 6.00 Build 0)  -->
<svg version="1.1" xmlns="http://www.w3.org/2000/svg" xmlns:xlink="http://www.w3.org/1999/xlink" x="0px" y="0px"
	 viewBox="0 0 750 500" style="enable-background:new 0 0 750 500;" xml:space="preserve">
<g id="BACKGROUND">
	<rect x="0" style="fill:#D8C595;" width="750" height="500"/>
</g>
<g id="OBJECTS">
	<g>
		<g>
			<path style="fill:#CEB684;" d="M750,339.983c-64.599,32.037-117.47,94.364-189.39,102.181
				c-42.302,4.598-84.789-10.917-127.154-6.947c-34.018,3.188-65.538,18.685-98.675,27.015c-46.078,11.584-95.63,8.936-140.21-7.494
				c-47.734-17.591-89.094-50.192-137.608-65.502C38.51,383.413,19.025,380.069,0,375.817V500h750V339.983z"/>
		</g>
		<g>
			<path style="fill:#CEB684;" d="M750,165.392c-61.93,18.194-119.867,57.304-184.596,65.644
				c-61.064,7.868-123.008-12.373-184.204-5.618c-51.881,5.727-100.333,30.568-152.329,35.134
				c-29.087,2.554-58.729-1.42-86.116-11.546C93.399,230.757,49.651,192.64,0,181.082v116.241c2.105-0.279,4.224-0.513,6.361-0.687
				c33.244-2.707,66.414,8.267,99.695,6.069c24.19-1.598,47.599-10.116,71.83-10.882c55.595-1.757,107.113,37.156,162.545,32.543
				c55.886-4.65,99.292-51.873,153.642-65.694c52.447-13.337,106.856,5.925,160.359,14.053c31.621,4.804,63.569,5.679,95.568,4.77
				V165.392z"/>
		</g>
		<g>
			<path style="fill:#CEB684;" d="M0,140.378c2.168-4.164,5.392-8.484,10.203-12.37c16.361-13.215,3.037-4.558,21.395-17.619
				C57.507,91.955,46.7,66.969,64.319,60.677c17.619-6.293,15.102,4.405,34.609-5.034c19.507-9.439,15.103-15.732,40.273-18.878
				c25.17-3.146,28.317,11.956,49.083,3.146c20.766-8.81,18.878-13.844,36.497-13.214c17.619,0.629,45.936,25.8,74.882,15.102
				c28.946-10.698,39.014-19.507,59.151-18.249c20.136,1.258,39.644,30.834,77.399,22.024c37.756-8.81,47.195-25.8,70.478-23.912
				s27.058,9.439,39.644,7.551c12.586-1.888,20.766,13.215,51.6,18.249c30.834,5.034,31.463,2.517,39.643,5.034
				c6.759,2.08,77.945,46.68,112.422,53.604V0H0V140.378z"/>
			<path style="fill:#CEB684;" d="M12.019,129.604c1.343,0.269,1.612,1.88-0.269,2.015C9.87,131.753,10.676,129.335,12.019,129.604z
				"/>
			<path style="fill:#CEB684;" d="M31.469,130.819c1.343,0.269,1.612,1.881-0.269,2.015
				C29.32,132.968,30.126,130.551,31.469,130.819z"/>
			<path style="fill:#CEB684;" d="M28.726,122.835c1.343,0.269,1.612,1.881-0.269,2.015
				C26.577,124.984,27.383,122.566,28.726,122.835z"/>
			<path style="fill:#CEB684;" d="M57.359,96.103c1.343,0.269,1.612,1.881-0.269,2.015C55.21,98.252,56.016,95.834,57.359,96.103z"
				/>
			<path style="fill:#CEB684;" d="M285.838,55.817c1.343,0.269,1.612,1.881-0.269,2.015
				C283.689,57.966,284.495,55.548,285.838,55.817z"/>
			<path style="fill:#CEB684;" d="M317.057,64.285c2.238,0.448,2.685,3.133-0.448,3.357
				C313.477,67.865,314.819,63.837,317.057,64.285z"/>
			<path style="fill:#CEB684;" d="M330.387,37.183c2.238,0.447,2.685,3.133-0.448,3.357
				C326.807,40.763,328.15,36.735,330.387,37.183z"/>
			<path style="fill:#CEB684;" d="M384.942,45.417c2.238,0.447,2.685,3.133-0.448,3.357
				C381.361,48.998,382.704,44.97,384.942,45.417z"/>
			<path style="fill:#CEB684;" d="M494.393,35.124c2.238,0.448,2.685,3.133-0.448,3.357
				C490.813,38.705,492.155,34.677,494.393,35.124z"/>
			<path style="fill:#CEB684;" d="M469.346,53.995c2.238,0.448,2.685,3.133-0.448,3.357
				C465.766,57.576,467.108,53.548,469.346,53.995z"/>
			<path style="fill:#CEB684;" d="M338.1,53.621c1.343,0.269,1.612,1.881-0.269,2.015S336.757,53.353,338.1,53.621z"/>
			<path style="fill:#CEB684;" d="M413.241,60.484c1.343,0.269,1.612,1.88-0.269,2.015
				C411.091,62.633,411.897,60.215,413.241,60.484z"/>
			<path style="fill:#CEB684;" d="M59.588,77.463c1.343,0.269,1.612,1.881-0.269,2.015C57.439,79.612,58.245,77.194,59.588,77.463z"
				/>
			<path style="fill:#CEB684;" d="M245.228,45.373c1.343,0.269,1.612,1.881-0.269,2.015
				C243.079,47.522,243.884,45.105,245.228,45.373z"/>
		</g>
		<path style="fill:#CEB684;" d="M257.346,244.723c3.978-3.06,8.875-0.306,5.202,3.366
			C258.877,251.762,253.368,247.783,257.346,244.723z"/>
		<path style="fill:#CEB684;" d="M572.699,65.849c3.978-3.06,8.875-0.306,5.202,3.366C574.229,72.887,568.72,68.909,572.699,65.849z
			"/>
		<path style="fill:#CEB684;" d="M239.58,375.952c3.978-3.06,8.875-0.306,5.202,3.366C241.11,382.99,235.602,379.012,239.58,375.952
			z"/>
		<path style="fill:#CEB684;" d="M7.895,312.895c3.978-3.06,8.875-0.306,5.202,3.366C9.425,319.934,3.916,315.955,7.895,312.895z"/>
		<path style="fill:#CEB684;" d="M24.938,168.047c1.897-1.459,4.232-0.146,2.481,1.605
			C25.668,171.404,23.041,169.507,24.938,168.047z"/>
		<path style="fill:#CEB684;" d="M564.388,214.482c1.897-1.459,4.232-0.146,2.481,1.605
			C565.118,217.839,562.491,215.941,564.388,214.482z"/>
		<path style="fill:#CEB684;" d="M730.96,333.634c1.897-1.459,4.232-0.146,2.481,1.605
			C731.69,336.99,729.063,335.093,730.96,333.634z"/>
		<path style="fill:#CEB684;" d="M490.711,285.987c1.897-1.459,4.232-0.146,2.481,1.605
			C491.44,289.344,488.814,287.447,490.711,285.987z"/>
		<path style="fill:#CEB684;" d="M479.405,405.91c1.897-1.459,4.232-0.146,2.481,1.605
			C480.135,409.267,477.508,407.37,479.405,405.91z"/>
	</g>
	<g>
		<g>
			<path style="fill:#009F9D;" d="M227.373,381.405c-5.509-47.217-14.953-71.613-14.953-71.613s-5.508,2.361-22.822,4.722
				c-17.313,2.361-47.217-6.296-92.861,1.574c-45.644,7.87-72.4-2.361-72.4-2.361c-8.657,25.97,11.804,58.235,11.804,58.235
				s-0.787,11.017-0.787,25.183c0,14.165,8.656,28.331,8.656,28.331c-2.965,13.638-0.568,54.974,0.793,74.526h182.929
				c-1.758-9.07-3.956-18.352-5.87-25.734C216.356,453.018,232.882,428.622,227.373,381.405z"/>
			<g>
				<defs>
					<path id="SVGID_1_" d="M227.373,381.405c-5.509-47.217-14.953-71.613-14.953-71.613s-5.508,2.361-22.822,4.722
						c-17.313,2.361-47.217-6.296-92.861,1.574c-45.644,7.87-72.4-2.361-72.4-2.361c-8.657,25.97,11.804,58.235,11.804,58.235
						s-0.787,11.017-0.787,25.183c0,14.165,8.656,28.331,8.656,28.331c-2.965,13.638-0.568,54.974,0.793,74.526h182.929
						c-1.758-9.07-3.956-18.352-5.87-25.734C216.356,453.018,232.882,428.622,227.373,381.405z"/>
				</defs>
				<clipPath id="SVGID_00000029004265289501812820000008889819221469081265_">
					<use xlink:href="#SVGID_1_"  style="overflow:visible;"/>
				</clipPath>
				<g style="clip-path:url(#SVGID_00000029004265289501812820000008889819221469081265_);">
					<g>
						<path style="fill:#FF5238;" d="M21.878,338.983c5.151-1.768,44.714,7.608,46.146,14.401
							c1.433,6.793-16.136,29.541-32.578,35.5c-16.443,5.959-16.137-0.137-16.137-0.137S16.727,340.752,21.878,338.983z"/>
						<path style="fill:#006352;" d="M68.025,353.384c-0.36-1.709-3.136-3.582-7.17-5.4c-11.764,26.712-31.292,34.01-41.763,35.988
							c0.12,2.947,0.218,4.775,0.218,4.775s-0.306,6.095,16.137,0.137C51.889,382.926,69.457,360.177,68.025,353.384z"/>
						
							<line style="fill:none;stroke:#1C1C1B;stroke-width:3;stroke-miterlimit:10;" x1="25.923" y1="354.477" x2="27.148" y2="358.442"/>
						
							<line style="fill:none;stroke:#1C1C1B;stroke-width:3;stroke-miterlimit:10;" x1="38.363" y1="348.309" x2="40.673" y2="350.281"/>
						
							<line style="fill:none;stroke:#1C1C1B;stroke-width:3;stroke-miterlimit:10;" x1="36.486" y1="358.531" x2="38.641" y2="361.436"/>
						
							<line style="fill:none;stroke:#1C1C1B;stroke-width:3;stroke-miterlimit:10;" x1="30.002" y1="367.882" x2="30.108" y2="371.903"/>
						<path style="fill:none;stroke:#1C1C1B;stroke-width:3;stroke-miterlimit:10;" d="M48.964,351.299"/>
						
							<line style="fill:none;stroke:#1C1C1B;stroke-width:3;stroke-miterlimit:10;" x1="51.179" y1="353.216" x2="48.4" y2="351.612"/>
						
							<line style="fill:none;stroke:#1C1C1B;stroke-width:3;stroke-miterlimit:10;" x1="27.785" y1="344.502" x2="29.281" y2="347.665"/>
					</g>
					<g>
						<path style="fill:#FF5238;" d="M171.532,342.861c-5.311-1.206-34.024-29.993-31.668-36.524
							c2.355-6.531,29.263-16.634,46.382-13.052c17.118,3.583,13.651,8.605,13.651,8.605S176.843,344.067,171.532,342.861z"/>
						<path style="fill:#006352;" d="M139.863,306.338c-0.593,1.643,0.783,4.696,3.257,8.364
							c24.058-16.528,44.504-12.461,54.45-8.635c1.449-2.569,2.327-4.175,2.327-4.175s3.467-5.023-13.651-8.605
							C169.127,289.703,142.219,299.807,139.863,306.338z"/>
						
							<line style="fill:none;stroke:#1C1C1B;stroke-width:3;stroke-miterlimit:10;" x1="176.243" y1="327.557" x2="177.287" y2="323.541"/>
						
							<line style="fill:none;stroke:#1C1C1B;stroke-width:3;stroke-miterlimit:10;" x1="162.419" y1="326.259" x2="161.492" y2="323.366"/>
						
							<line style="fill:none;stroke:#1C1C1B;stroke-width:3;stroke-miterlimit:10;" x1="169.393" y1="318.553" x2="169.088" y2="314.948"/>
						
							<line style="fill:none;stroke:#1C1C1B;stroke-width:3;stroke-miterlimit:10;" x1="179.826" y1="314.011" x2="181.852" y2="310.536"/>
						<path style="fill:none;stroke:#1C1C1B;stroke-width:3;stroke-miterlimit:10;" d="M154.976,318.138"/>
						
							<line style="fill:none;stroke:#1C1C1B;stroke-width:3;stroke-miterlimit:10;" x1="154.101" y1="315.343" x2="155.62" y2="318.169"/>
						
							<line style="fill:none;stroke:#1C1C1B;stroke-width:3;stroke-miterlimit:10;" x1="169.412" y1="335.06" x2="169.804" y2="331.584"/>
					</g>
					<g>
						<path style="fill:#FF5238;" d="M40.228,489.652c-2.991-4.552-3.72-45.204,2.506-48.276s32.62,8.305,42.471,22.756
							c9.851,14.451,3.87,15.666,3.87,15.666S43.219,494.204,40.228,489.652z"/>
						<path style="fill:#006352;" d="M42.734,441.376c-1.567,0.773-2.692,3.927-3.453,8.285
							c28.796,4.772,40.708,21.88,45.222,31.533c2.826-0.847,4.571-1.395,4.571-1.395s5.981-1.215-3.87-15.666
							C75.354,449.68,48.959,438.303,42.734,441.376z"/>
						
							<line style="fill:none;stroke:#1C1C1B;stroke-width:3;stroke-miterlimit:10;" x1="54.234" y1="481.891" x2="57.771" y2="479.721"/>
						
							<line style="fill:none;stroke:#1C1C1B;stroke-width:3;stroke-miterlimit:10;" x1="45.173" y1="471.37" x2="46.511" y2="468.642"/>
						
							<line style="fill:none;stroke:#1C1C1B;stroke-width:3;stroke-miterlimit:10;" x1="55.542" y1="470.653" x2="57.821" y2="467.844"/>
						
							<line style="fill:none;stroke:#1C1C1B;stroke-width:3;stroke-miterlimit:10;" x1="66.209" y1="474.615" x2="70.078" y2="473.515"/>
						<path style="fill:none;stroke:#1C1C1B;stroke-width:3;stroke-miterlimit:10;" d="M45.441,460.358"/>
						
							<line style="fill:none;stroke:#1C1C1B;stroke-width:3;stroke-miterlimit:10;" x1="46.749" y1="457.737" x2="45.884" y2="460.826"/>
						
							<line style="fill:none;stroke:#1C1C1B;stroke-width:3;stroke-miterlimit:10;" x1="44.109" y1="482.561" x2="46.802" y2="480.327"/>
					</g>
					<g>
						<path style="fill:#FF5238;" d="M233.46,442.958c4.256,3.399,17.563,41.818,12.598,46.671
							c-4.965,4.853-33.587,2.228-47.436-8.453c-13.849-10.681-8.54-13.692-8.54-13.692S229.204,439.559,233.46,442.958z"/>
						<path style="fill:#006352;" d="M246.058,489.629c1.249-1.221,1.341-4.568,0.712-8.947
							c-28.855,4.399-45.488-8.168-52.775-15.943c-2.423,1.682-3.913,2.745-3.913,2.745s-5.308,3.011,8.54,13.692
							C212.471,491.856,241.093,494.482,246.058,489.629z"/>
						
							<line style="fill:none;stroke:#1C1C1B;stroke-width:3;stroke-miterlimit:10;" x1="222.553" y1="454.683" x2="219.864" y2="457.843"/>
						
							<line style="fill:none;stroke:#1C1C1B;stroke-width:3;stroke-miterlimit:10;" x1="234.432" y1="461.872" x2="234.006" y2="464.88"/>
						
							<line style="fill:none;stroke:#1C1C1B;stroke-width:3;stroke-miterlimit:10;" x1="224.797" y1="465.772" x2="223.502" y2="469.149"/>
						
							<line style="fill:none;stroke:#1C1C1B;stroke-width:3;stroke-miterlimit:10;" x1="213.427" y1="465.315" x2="210.09" y2="467.561"/>
						<path style="fill:none;stroke:#1C1C1B;stroke-width:3;stroke-miterlimit:10;" d="M237.594,472.424"/>
						
							<line style="fill:none;stroke:#1C1C1B;stroke-width:3;stroke-miterlimit:10;" x1="237.164" y1="475.321" x2="237.028" y2="472.116"/>
						
							<line style="fill:none;stroke:#1C1C1B;stroke-width:3;stroke-miterlimit:10;" x1="231.971" y1="450.904" x2="230.103" y2="453.862"/>
					</g>
					<g>
						<path style="fill:#FF5238;" d="M166.315,511.031c-3.916,3.785-43.724,12.059-47.9,6.513
							c-4.177-5.546,2.095-33.596,14.463-45.961c12.368-12.366,14.674-6.715,14.674-6.715S170.231,507.246,166.315,511.031z"/>
						<path style="fill:#006352;" d="M118.415,517.544c1.051,1.395,4.359,1.915,8.782,1.852
							c-0.665-29.181,13.93-44.066,22.575-50.296c-1.358-2.619-2.221-4.232-2.221-4.232s-2.306-5.65-14.674,6.715
							C120.51,483.949,114.238,511.998,118.415,517.544z"/>
						
							<line style="fill:none;stroke:#1C1C1B;stroke-width:3;stroke-miterlimit:10;" x1="156.085" y1="498.711" x2="153.296" y2="495.639"/>
						
							<line style="fill:none;stroke:#1C1C1B;stroke-width:3;stroke-miterlimit:10;" x1="147.432" y1="509.57" x2="144.503" y2="508.763"/>
						
							<line style="fill:none;stroke:#1C1C1B;stroke-width:3;stroke-miterlimit:10;" x1="144.8" y1="499.516" x2="141.616" y2="497.798"/>
						
							<line style="fill:none;stroke:#1C1C1B;stroke-width:3;stroke-miterlimit:10;" x1="146.71" y1="488.298" x2="144.91" y2="484.701"/>
						<path style="fill:none;stroke:#1C1C1B;stroke-width:3;stroke-miterlimit:10;" d="M136.562,511.355"/>
						
							<line style="fill:none;stroke:#1C1C1B;stroke-width:3;stroke-miterlimit:10;" x1="133.744" y1="510.557" x2="136.94" y2="510.832"/>
						
							<line style="fill:none;stroke:#1C1C1B;stroke-width:3;stroke-miterlimit:10;" x1="158.626" y1="508.536" x2="155.931" y2="506.305"/>
					</g>
					<g>
						<path style="fill:#FF5238;" d="M245.01,377.487c-4.538,3.011-45.186,3.922-48.287-2.289
							c-3.101-6.212,8.158-32.657,22.565-42.572c14.407-9.915,15.649-3.94,15.649-3.94S249.548,374.475,245.01,377.487z"/>
						<path style="fill:#006352;" d="M196.723,375.197c0.78,1.563,3.939,2.675,8.3,3.416c4.643-28.817,21.697-40.806,31.33-45.363
							c-0.86-2.822-1.416-4.565-1.416-4.565s-1.242-5.975-15.649,3.94C204.881,342.54,193.622,368.986,196.723,375.197z"/>
						
							<line style="fill:none;stroke:#1C1C1B;stroke-width:3;stroke-miterlimit:10;" x1="237.186" y1="363.515" x2="235.001" y2="359.988"/>
						
							<line style="fill:none;stroke:#1C1C1B;stroke-width:3;stroke-miterlimit:10;" x1="226.706" y1="372.623" x2="223.972" y2="371.298"/>
						
							<line style="fill:none;stroke:#1C1C1B;stroke-width:3;stroke-miterlimit:10;" x1="225.942" y1="362.258" x2="223.124" y2="359.991"/>
						
							<line style="fill:none;stroke:#1C1C1B;stroke-width:3;stroke-miterlimit:10;" x1="229.857" y1="351.573" x2="228.739" y2="347.709"/>
						<path style="fill:none;stroke:#1C1C1B;stroke-width:3;stroke-miterlimit:10;" d="M215.693,372.405"/>
						
							<line style="fill:none;stroke:#1C1C1B;stroke-width:3;stroke-miterlimit:10;" x1="213.066" y1="371.109" x2="216.159" y2="371.96"/>
						
							<line style="fill:none;stroke:#1C1C1B;stroke-width:3;stroke-miterlimit:10;" x1="237.902" y1="373.637" x2="235.656" y2="370.954"/>
					</g>
					<g>
						<path style="fill:#FF5238;" d="M155.527,405.01c3.013,4.537,3.943,45.185-2.268,48.288
							c-6.21,3.103-32.661-8.144-42.583-22.546c-9.922-14.402-3.947-15.647-3.947-15.647S152.514,400.473,155.527,405.01z"/>
						<path style="fill:#006352;" d="M153.26,453.298c1.563-0.781,2.673-3.94,3.412-8.302c-28.819-4.63-40.816-21.678-45.377-31.309
							c-2.821,0.861-4.564,1.418-4.564,1.418s-5.975,1.245,3.947,15.647C120.599,445.155,147.049,456.401,153.26,453.298z"/>
						
							<line style="fill:none;stroke:#1C1C1B;stroke-width:3;stroke-miterlimit:10;" x1="141.559" y1="412.84" x2="138.033" y2="415.027"/>
						
							<line style="fill:none;stroke:#1C1C1B;stroke-width:3;stroke-miterlimit:10;" x1="150.672" y1="423.316" x2="149.348" y2="426.051"/>
						
							<line style="fill:none;stroke:#1C1C1B;stroke-width:3;stroke-miterlimit:10;" x1="140.307" y1="424.085" x2="138.041" y2="426.905"/>
						
							<line style="fill:none;stroke:#1C1C1B;stroke-width:3;stroke-miterlimit:10;" x1="129.621" y1="420.175" x2="125.757" y2="421.294"/>
						<path style="fill:none;stroke:#1C1C1B;stroke-width:3;stroke-miterlimit:10;" d="M150.459,434.33"/>
						
							<line style="fill:none;stroke:#1C1C1B;stroke-width:3;stroke-miterlimit:10;" x1="149.164" y1="436.957" x2="150.013" y2="433.863"/>
						
							<line style="fill:none;stroke:#1C1C1B;stroke-width:3;stroke-miterlimit:10;" x1="151.681" y1="412.12" x2="148.999" y2="414.367"/>
					</g>
				</g>
			</g>
			<path style="fill:none;stroke:#1C1C1B;stroke-miterlimit:10;" d="M51.467,445.438c0,0,42.22-6.688,46.818-6.688"/>
			<path style="fill:none;stroke:#1C1C1B;stroke-miterlimit:10;" d="M55.647,455.053c0,0,21.737-7.106,31.77-9.196"/>
			<path style="fill:none;stroke:#1C1C1B;stroke-miterlimit:10;" d="M173.529,467.593c1.672-0.418,31.352-0.418,40.13,0.836"/>
			<path style="fill:none;stroke:#1C1C1B;stroke-miterlimit:10;" d="M174.365,472.61c0,0,39.294,5.016,43.474,8.36"/>
			<path style="fill:none;stroke:#1C1C1B;stroke-width:2;stroke-miterlimit:10;" d="M24.338,313.726c0,0-8.955,26.977,11.804,58.235
				"/>
			<path style="fill:none;stroke:#1C1C1B;stroke-width:2;stroke-miterlimit:10;" d="M34.746,380.227c0,0,0.137,30.717,9.265,45.247"
				/>
			<path style="fill:none;stroke:#1C1C1B;stroke-miterlimit:10;" d="M44.361,413.669c0,0,5.852,6.27,4.598,12.541
				c-1.254,6.27-4.135,12.24-2.926,18.811"/>
			<path style="fill:none;stroke:#1C1C1B;stroke-width:2;stroke-miterlimit:10;" d="M217.82,328.917c0,0,17.643,63.088,8.02,99.978"
				/>
		</g>
		<g>
			<g>
				<g>
					<path style="fill:#FFE9D1;" d="M165.861,500c0.13-3.023-3.564-32.25-3.564-32.25l-57.845-2.177c0,0-1.99,5.197-1.803,11.153
						c0.187,5.957,0.784,19.685,0.505,21.35c-0.102,0.606-0.023,1.293,0.116,1.923h31.397c-0.409-3.262-2.325-11.287-2.325-11.287
						L136.264,500H165.861z"/>
					<g>
						<path style="fill:none;stroke:#1C1C1B;stroke-miterlimit:10;" d="M132.134,476.09c0,0,1.681,6.491,4.509,9.147"/>
						<path style="fill:none;stroke:#1C1C1B;stroke-miterlimit:10;" d="M129.995,476.505c0,0,0.825,4.805,1.807,7.47"/>
						<line style="fill:none;stroke:#1C1C1B;stroke-miterlimit:10;" x1="134.501" y1="484.504" x2="136.404" y2="482.708"/>
						<line style="fill:none;stroke:#1C1C1B;stroke-miterlimit:10;" x1="133.973" y1="483.274" x2="135.583" y2="482.066"/>
						<line style="fill:none;stroke:#1C1C1B;stroke-miterlimit:10;" x1="130.297" y1="482.499" x2="132.238" y2="481.904"/>
					</g>
					<path style="fill:none;stroke:#1C1C1B;stroke-miterlimit:10;" d="M103.052,480.185c0,0,7.718-2.189,5.924-8.946"/>
					<path style="fill:none;stroke:#1C1C1B;stroke-miterlimit:10;" d="M149.872,471.78c0,0,4.594,10.684,12.232,9.836"/>
					<path style="fill:none;stroke:#1C1C1B;stroke-miterlimit:10;" d="M122.883,486.283c0,0,9.632,4.21,20.924,0.768"/>
				</g>
			</g>
			<g>
				<g>
					<g>
						<path style="fill:#FFA092;" d="M83.285,401.39c9.183,0.94,32.959,17.603,32.959,17.603c6.939,4,4.674,7.468,4.184,9.277
							c-1.563,5.777-5.894,10.833-11.357,8.86c-8.163-2.947-34.009-21.297-35.44-24.289L83.285,401.39z"/>
					</g>
					<g>
						<g>
							<g>
								<path style="fill:#FFA092;" d="M72.875,401.916c5.081-14.804,17.42-24.298,17.42-24.298l7.507,5.798
									c0,0-5.472,14.491-9.289,24.567c-1.548,4.088-6.128,7.721-10.159,6.347l-2.05-0.306
									C71.008,412.218,71.011,407.346,72.875,401.916z"/>
								<path style="fill:#FF7564;" d="M81.403,386.713c2.351,3.749,5.747,8.238,10.438,12.476
									c3.054-8.076,5.961-15.773,5.961-15.773l-7.507-5.798C90.295,377.618,85.98,380.939,81.403,386.713z"/>
								<line style="fill:none;stroke:#1C1C1B;stroke-miterlimit:10;" x1="91.36" y1="400.364" x2="94.358" y2="393.004"/>
								<path style="fill:none;stroke:#1C1C1B;stroke-miterlimit:10;" d="M83.285,401.39c0,0,7.861,1.597,11.677,4.406"/>
								<g>
									<g>
										<g>
											<path style="fill:#FFA092;" d="M92.722,382.488l-2.15-2.904c-2.054-2.774-1.437-6.772,1.377-8.929l0,0
												c2.814-2.156,6.759-1.656,8.813,1.117l2.149,2.902c2.054,2.774,1.438,6.772-1.377,8.929l-0.002,0.002
												C98.719,385.759,94.776,385.26,92.722,382.488z"/>
											<path style="fill:#FFA092;" d="M111.264,370.986c1.092,1.703-7.823,7.769-10.12,5.883
												C98.938,375.059,109.983,368.989,111.264,370.986z"/>
										</g>
									</g>
									<path style="fill:#FFA092;" d="M99.196,381.137c0,0,2.733,3.775,5.856,2.995c1.51-0.377,4.397-1.551,4.08-2.471
										c-0.897-2.605-3.859-1.344-4.699-0.798c0,0-2.461-2.426-3.328-2.276"/>
									<path style="fill:#FFA092;" d="M103.027,364.177c2.281,1.346-5.029,9.704-6.985,8.319
										C94.151,371.159,100.421,362.64,103.027,364.177z"/>
									<path style="fill:#FFA092;" d="M107.966,367.911c0.682,0.994-1.294,2.499-3.284,3.961
										c-1.773,1.302-3.359,2.578-4.211,1.703C98.3,371.347,106.118,365.219,107.966,367.911z"/>
									<path style="fill:#FFA092;" d="M94.451,363.916c2.245-0.287,1.202,8.351-0.11,8.321
										C91.544,372.172,92.603,364.152,94.451,363.916z"/>
								</g>
								<path style="fill:none;stroke:#1C1C1B;stroke-linejoin:round;stroke-miterlimit:10;" d="M94.398,369.609
									c0,0,5.985,1.103,8.513,5.064"/>
								<path style="fill:none;stroke:#1C1C1B;stroke-linejoin:round;stroke-miterlimit:10;" d="M99.212,378.918
									c0,0,3.354-0.562,4.757,1.051"/>
							</g>
						</g>
					</g>
				</g>
				<g>
					<g>
						<path style="fill:#FFA092;" d="M193.876,400.863c-9.177,1-39.22,19.369-39.22,19.369c-6.912,4.046-4.625,7.498-4.123,9.304
							c1.601,5.767,5.965,10.794,11.415,8.785c8.143-3.001,40.246-23.07,41.657-26.072L193.876,400.863z"/>
					</g>
					<g>
						<g>
							<g>
								<path style="fill:#FFA092;" d="M204.29,401.32c-5.178-14.77-17.58-24.182-17.58-24.182l-7.469,5.847
									c0,0,5.568,14.454,9.451,24.505c1.575,4.078,6.179,7.68,10.201,6.28l2.048-0.319
									C206.224,411.61,206.189,406.738,204.29,401.32z"/>
								<path style="fill:#FF7564;" d="M186.709,377.138l-7.469,5.847c0,0,3.307,8.585,6.601,17.123
									c5.286-2.873,9.806-6.019,13.212-9.263C193.438,382.25,186.709,377.138,186.709,377.138z"/>
								<path style="fill:none;stroke:#1C1C1B;stroke-miterlimit:10;" d="M184.907,404.038c0,0,2.07-1.929,7.698-0.774"/>
								<g>
									<g>
										<g>
											<path style="fill:#FFA092;" d="M184.314,382.023l2.131-2.917c2.036-2.787,1.393-6.782-1.436-8.92l0,0
												c-2.828-2.138-6.769-1.612-8.805,1.175l-2.129,2.916c-2.036,2.787-1.393,6.781,1.436,8.919l0.002,0.002
												C178.339,385.334,182.279,384.809,184.314,382.023z"/>
											<path style="fill:#FFA092;" d="M165.697,370.645c-1.08,1.71,7.874,7.717,10.159,5.816
												C178.049,374.636,166.964,368.639,165.697,370.645z"/>
										</g>
									</g>
									<path style="fill:#FFA092;" d="M177.832,380.716c0,0-2.708,3.793-5.836,3.033c-1.513-0.367-4.407-1.522-4.096-2.444
										c0.88-2.611,3.85-1.37,4.694-0.829c0,0,2.445-2.442,3.313-2.298"/>
									<path style="fill:#FFA092;" d="M173.889,363.781c-2.272,1.361,5.093,9.671,7.04,8.273
										C182.811,370.704,176.485,362.227,173.889,363.781z"/>
									<path style="fill:#FFA092;" d="M168.975,367.548c-0.676,0.998,1.311,2.49,3.31,3.939c1.781,1.29,3.376,2.556,4.222,1.675
										C178.663,370.92,170.805,364.844,168.975,367.548z"/>
									<path style="fill:#FFA092;" d="M182.463,363.464c-2.246-0.272-1.147,8.359,0.165,8.32
										C185.424,371.7,184.312,363.687,182.463,363.464z"/>
								</g>
								<path style="fill:none;stroke:#1C1C1B;stroke-linejoin:round;stroke-miterlimit:10;" d="M182.553,369.156
									c0,0-5.978,1.143-8.479,5.12"/>
								<path style="fill:none;stroke:#1C1C1B;stroke-linejoin:round;stroke-miterlimit:10;" d="M177.802,378.496
									c0,0-3.358-0.54-4.75,1.082"/>
							</g>
						</g>
					</g>
				</g>
			</g>
			<g>
				<g>
					<g>
						<g>
							<path style="fill:#FFA092;" d="M163.141,471.021c0.183-4.966,0.242-21.886-0.982-28.235
								c-1.657-8.588-2.366-21.028-7.457-24.53c-0.59-0.406-3.728-3.051-6.016-3.313c-1.846-0.567-22.568-2.377-34.505,5.381
								c-1.536,0.999-2.927,2.155-4.113,3.493c-5.788,6.529-8.062,31.147-7.346,46.438
								C115.332,476.151,146.995,476.46,163.141,471.021z"/>
						</g>
						<path style="fill:none;stroke:#1C1C1B;stroke-miterlimit:10;" d="M100.528,422.296c0,0,6.781,7.426,6.977,13.694"/>
						<path style="fill:none;stroke:#1C1C1B;stroke-miterlimit:10;" d="M166.901,424.851c0,0-6.548,8.663-8.54,14.727"/>
						<line style="fill:none;stroke:#1C1C1B;stroke-miterlimit:10;" x1="131.451" y1="468.795" x2="133.695" y2="468.889"/>
						<g>
							<path style="fill:none;stroke:#1C1C1B;stroke-width:2;stroke-miterlimit:10;" d="M136.778,466.723"/>
							<g>
								<path style="fill:#FFA092;" d="M115.776,472.632"/>
							</g>
							<path style="fill:#FFA092;" d="M140.53,414.423c0,0,0.577,7.509-3.933,8.423c-4.51,0.914-12.314,0.561-10.256-9.58
								L140.53,414.423z"/>
							<path style="fill:#FF7564;" d="M126.341,413.266l14.189,1.158c0,0,0.117,1.595-0.192,3.402l-8.995-0.294
								c-1.757-0.057-3.536-0.233-5.314-0.516C125.961,415.945,126.049,414.707,126.341,413.266z"/>
						</g>
					</g>
					<path style="fill:none;stroke:#1C1C1B;stroke-width:2;stroke-linejoin:round;stroke-miterlimit:10;" d="M157.07,470.224"/>
				</g>
			</g>
			<g>
				<g>
					<path style="fill:#FFA092;" d="M169.758,372.686c-1.347,8.389,3.671,16.196,11.206,17.437
						c7.535,1.241,14.162-4.901,15.508-13.29c1.346-8.389-3.098-15.847-10.633-17.088
						C178.303,358.503,171.103,364.297,169.758,372.686z"/>
					<path style="fill:#FF7564;" d="M175.445,373.256c-0.794,4.946,2.165,9.549,6.608,10.281c4.443,0.732,8.688-2.685,9.482-7.63
						c0.794-4.947-2.165-9.549-6.608-10.282C180.484,364.894,176.239,368.31,175.445,373.256z"/>
					<path style="fill:#FFA092;" d="M78.242,367.126c-0.578,8.477,5.129,15.795,12.746,16.345
						c7.618,0.551,14.261-5.874,14.839-14.351c0.577-8.476-5.13-15.794-12.747-16.344C85.463,352.225,78.82,358.65,78.242,367.126z"
						/>
					<path style="fill:#FF7564;" d="M84.561,367.471c-0.34,4.998,3.025,9.313,7.516,9.637c4.491,0.325,8.408-3.464,8.748-8.462
						c0.341-4.998-3.024-9.313-7.516-9.638C88.819,358.686,84.902,362.474,84.561,367.471z"/>
					<g>
						<path style="fill:#FFA092;" d="M134.702,323.478l18.977,4.755c25.806,1.944,30.431,23.607,28.382,44.259l-0.612,6.173
							c4.594,21.961-20.116,35.736-40.357,33.695l-15.727-1.587c-20.24-2.043-36.689-15.396-32.939-41.09l0.613-6.173
							C94.66,327.652,114.462,321.436,134.702,323.478z"/>
					</g>
					<g>
						<path style="fill:#FFA092;" d="M134.702,323.478l18.977,4.755c25.806,1.944,30.431,23.607,28.382,44.259l-0.612,6.173
							c4.594,21.961-20.116,35.736-40.357,33.695l-15.727-1.587c-20.24-2.043-36.689-15.396-32.939-41.09l0.613-6.173
							C94.66,327.652,114.462,321.436,134.702,323.478z"/>
					</g>
					<path style="fill:none;stroke:#1C1C1B;stroke-miterlimit:10;" d="M128.797,374.467c0,0,7.632,6.252,16.179,0.528"/>
					<path style="fill:#1C1C1B;" d="M176.434,380.483c0,0,8.631-29.725-9.305-41.06c-16.941-10.705-20.394,3.339-31.366-0.712
						c-10.972-4.051-12.727-10.77-24.387-4.936c-13.655,6.832-15.268,27.371-15.009,39.968l-4.812,0.807
						c0,0,3.19-19.817-1.297-21.281c-4.487-1.464-10.293,7.522-10.293,7.522s7.457-41.281,30.338-52.765
						c19.392-9.733,84.848-4.837,80.641,52.58c0,0-9.044,4.886-9.545,19.045L176.434,380.483z"/>
					<path style="fill:#1C1C1B;" d="M106.597,363.626c-0.362,1.243,2.816,0.905,8.658,2.609c5.842,1.704,10.262,4.078,10.624,2.836
						c0.362-1.243-2.798-5.814-8.639-7.517C111.398,359.849,106.959,362.384,106.597,363.626z"/>
					<path style="fill:#1C1C1B;" d="M146.507,370.145c0.15,1.286,2.946-0.264,8.99-0.97c6.044-0.707,11.04-0.241,10.89-1.527
						c-0.15-1.286-4.842-4.265-10.885-3.558C149.457,364.797,146.356,368.86,146.507,370.145z"/>
					<g>
						<g>
							<path style="fill:#1C1C1B;" d="M165.415,351.681c-1.523-3.068-5.078-4.745-8.335-5.168c-3.664-0.475-7.394,0.696-9.548,3.818
								c-0.55,0.796,0.75,1.547,1.295,0.757c1.835-2.659,5.157-3.523,8.235-3.075c2.766,0.403,5.763,1.819,7.057,4.425
								C164.549,353.302,165.843,352.543,165.415,351.681L165.415,351.681z"/>
						</g>
					</g>
					<g>
						<g>
							<path style="fill:#1C1C1B;" d="M113.396,349.589c1.222-2.785,4.714-3.689,7.495-3.664c2.678,0.024,6.142,0.993,6.83,3.964
								c0.218,0.94,1.665,0.542,1.447-0.399c-1.334-5.753-9.804-6-14.028-3.752c-1.295,0.689-2.443,1.735-3.039,3.094
								C111.717,349.708,113.009,350.472,113.396,349.589L113.396,349.589z"/>
						</g>
					</g>
					<path style="fill:#FF7564;" d="M153.858,380.223c0.005,3.559,3.725,6.444,8.311,6.445c4.585,0,8.298-2.884,8.293-6.443
						c-0.005-3.559-3.726-6.445-8.312-6.446C157.566,373.779,153.853,376.664,153.858,380.223z"/>
					<path style="fill:#FF7564;" d="M101.142,377.365c-0.379,3.539,3.01,6.808,7.569,7.303c4.558,0.494,8.56-1.974,8.939-5.512
						c0.378-3.539-3.01-6.809-7.569-7.303C105.523,371.358,101.52,373.826,101.142,377.365z"/>
					<g>
						<g>
							<path style="fill:#1C1C1B;" d="M134.653,368.32c0.074,0.856,0.119,1.72,0.226,2.572c0.042,0.332,0.404,0.673,0.747,0.429
								c0.437-0.311,0.889-0.596,1.336-0.891c0.448-0.295,0.898-0.57,1.388-0.791c-0.056,0.015-0.112,0.03-0.168,0.045
								c0.05-0.005,0.099-0.008,0.149-0.01c-0.112-0.195-0.224-0.391-0.337-0.586c-0.145,0.301-0.23,0.634-0.346,0.947
								c-0.109,0.296-0.215,0.594-0.327,0.889c-0.108,0.283-0.222,0.564-0.343,0.842c-0.133,0.304-0.362,0.646-0.354,0.985
								c0.009,0.39,0.439,0.515,0.714,0.296c0.257-0.205,0.367-0.628,0.489-0.923c0.126-0.304,0.246-0.61,0.358-0.919
								c0.221-0.608,0.474-1.273,0.536-1.92c0.033-0.345-0.444-0.503-0.665-0.276c-0.174,0.178-0.48,0.265-0.707,0.359
								c-0.257,0.107-0.514,0.215-0.768,0.329c-0.5,0.223-0.982,0.493-1.456,0.767c0.249,0.143,0.498,0.286,0.747,0.429
								c-0.04-0.858-0.145-1.717-0.22-2.572c-0.023-0.269-0.213-0.5-0.5-0.5C134.901,367.82,134.63,368.049,134.653,368.32
								L134.653,368.32z"/>
						</g>
					</g>
				</g>
			</g>
		</g>
	</g>
	<g>
		<g>
			<g>
				<path style="fill:#F4F4F4;" d="M454.098,423.342c0.282-14.163-8.091-28.497-8.091-28.497
					c4.294-18.018,0.117-85.006,0.117-85.006s5.883-18.774,3.679-26.689c-2.204-7.915-178.604-3.552-185.732-1.333
					c-7.128,2.22,0.004,39.356,5.089,60.709c5.085,21.353-11.923,45.415-7.355,92.733c3.14,32.519,8.352,54.298,11.305,64.74
					h192.118c4.044-24.342-12.418-51.496-12.418-51.496S453.817,437.505,454.098,423.342z"/>
				<g>
					<path style="fill:#FFB300;" d="M430.932,446.392c-1.094-20.782-1.094-43.751-1.094-66.721c0-14.249,3.788-63.846,6.664-99.459
						c-0.001,0-0.003,0-0.004,0c-0.62-0.054-1.258-0.106-1.914-0.157c-0.008-0.001-0.017-0.001-0.026-0.002
						c-1.308-0.101-2.687-0.197-4.131-0.286c-0.019-0.001-0.038-0.002-0.057-0.003c-3.645-0.225-7.706-0.413-12.099-0.568
						c-1.763,23.278-2.778,50.754,0.629,64.381c6.563,26.251-1.094,74.378-2.188,101.722c-0.647,16.191,1.388,38.501,2.93,54.702
						h17.87C434.727,481.093,431.529,457.725,430.932,446.392z"/>
					<path style="fill:#FFB300;" d="M298.584,393.89c-4.376-24.063,6.563-28.438,3.281-51.408
						c-2.015-14.102-3.617-42.629-4.554-62.557c-1.914,0.063-3.767,0.128-5.558,0.193c-0.096,0.003-0.193,0.007-0.289,0.01
						c-0.844,0.031-1.675,0.062-2.489,0.094c-0.068,0.003-0.136,0.005-0.204,0.008c-0.835,0.032-1.655,0.065-2.457,0.097
						c-0.031,0.001-0.06,0.002-0.091,0.004c-1.659,0.067-3.246,0.135-4.753,0.204c-0.02,0.001-0.04,0.002-0.061,0.003
						c-0.739,0.034-1.458,0.067-2.158,0.101c-0.042,0.002-0.083,0.004-0.125,0.006c-0.702,0.034-1.385,0.068-2.045,0.102
						c1.127,11.625,4.576,46.653,7.281,68.298c3.282,26.251-7.656,31.72-6.563,57.971c0.679,16.294,4.307,61.231,6.962,92.984
						h21.968C304.77,464.123,301.443,409.618,298.584,393.89z"/>
					<path style="fill:#FFB300;" d="M390.909,403.059c-1.81-10.808,0.722-81.311,2.483-124.38c-4.767-0.046-9.686-0.07-14.695-0.074
						c-1.937,31.263-4.642,77.568-4.642,92.315c0,15.604,2.019,85.714,3.313,129.079h26.418
						C399.312,465.029,392.621,413.284,390.909,403.059z"/>
					<path style="fill:#FFB300;" d="M325.005,500h33.54c-2.08-56.518-6.177-161.061-8.553-176.112
						c-1.608-10.188-1.64-28.784-1.254-45.1c-2.75,0.034-5.491,0.072-8.212,0.114c-0.01,0-0.021,0-0.031,0
						c-2.708,0.042-5.397,0.087-8.057,0.136c-0.013,0-0.027,0-0.04,0.001c0.622,19.35,0.976,47.098-0.972,67.738
						C329,372.489,326.002,454.549,325.005,500z"/>
				</g>
			</g>
			<path style="fill:none;stroke:#1C1C1B;stroke-width:2;stroke-miterlimit:10;" d="M318.224,279.053c0,0-51.096-0.233-56.145,3.828
				c-7.48,6.017,2.776,39.108,7.081,59.645"/>
			<path style="fill:none;stroke:#1C1C1B;stroke-width:2;stroke-miterlimit:10;" d="M454.098,423.342c0,0,1.52,23.682-9.195,40.648"
				/>
			<path style="fill:none;stroke:#1C1C1B;stroke-width:2;stroke-miterlimit:10;" d="M279.709,455.061c0,0,35.718-7.143,48.665,1.339
				"/>
			<path style="fill:none;stroke:#1C1C1B;stroke-width:2;stroke-miterlimit:10;" d="M276.137,462.651c0,0,42.415-2.232,50.005,2.679
				"/>
		</g>
		<g>
			<g>
				<g>
					<g>
						<path style="fill:#FF7564;" d="M315.247,411.202c9.184,0.94,32.96,17.603,32.96,17.603c6.939,4,4.674,7.468,4.184,9.277
							c-1.563,5.777-5.893,10.833-11.357,8.86c-8.163-2.947-34.009-21.297-35.44-24.289L315.247,411.202z"/>
					</g>
					<g>
						<g>
							<g>
								<path style="fill:#FF7564;" d="M304.837,411.727c5.081-14.804,17.42-24.298,17.42-24.298l7.507,5.798
									c0,0-5.472,14.491-9.289,24.567c-1.548,4.088-6.128,7.721-10.159,6.347l-2.051-0.306
									C302.97,422.03,302.973,417.157,304.837,411.727z"/>
								<path style="fill:#FF5238;" d="M313.365,396.524c2.351,3.749,5.747,8.238,10.438,12.476
									c3.054-8.076,5.961-15.773,5.961-15.773l-7.508-5.798C322.257,387.429,317.942,390.75,313.365,396.524z"/>
								<path style="fill:none;stroke:#1C1C1B;stroke-miterlimit:10;" d="M315.247,411.202c0,0,7.861,1.597,11.677,4.406"/>
								<g>
									<g>
										<g>
											<path style="fill:#FF7564;" d="M324.684,392.299l-2.15-2.903c-2.054-2.774-1.438-6.772,1.377-8.929l0,0
												c2.814-2.156,6.759-1.656,8.813,1.117l2.149,2.901c2.054,2.774,1.438,6.772-1.377,8.929l-0.002,0.002
												C330.681,395.571,326.738,395.071,324.684,392.299z"/>
											<path style="fill:#FF7564;" d="M343.226,380.797c1.092,1.703-7.823,7.769-10.12,5.883
												C330.9,384.871,341.945,378.8,343.226,380.797z"/>
										</g>
									</g>
									<path style="fill:#FF7564;" d="M331.158,390.949c0,0,2.733,3.774,5.856,2.995c1.51-0.377,4.397-1.551,4.08-2.471
										c-0.897-2.605-3.859-1.344-4.699-0.798c0,0-2.461-2.426-3.328-2.276"/>
									<path style="fill:#FF7564;" d="M334.989,373.989c2.281,1.346-5.029,9.704-6.985,8.319
										C326.112,380.97,332.383,372.452,334.989,373.989z"/>
									<path style="fill:#FF7564;" d="M339.928,377.723c0.682,0.994-1.294,2.499-3.284,3.961
										c-1.773,1.302-3.359,2.578-4.211,1.703C330.262,381.158,338.08,375.031,339.928,377.723z"/>
									<path style="fill:#FF7564;" d="M326.413,373.727c2.245-0.287,1.202,8.351-0.11,8.321
										C323.506,381.983,324.565,373.963,326.413,373.727z"/>
								</g>
								<path style="fill:none;stroke:#1C1C1B;stroke-linejoin:round;stroke-miterlimit:10;" d="M326.36,379.42
									c0,0,5.985,1.103,8.513,5.064"/>
								<path style="fill:none;stroke:#1C1C1B;stroke-linejoin:round;stroke-miterlimit:10;" d="M331.174,388.729
									c0,0,3.354-0.562,4.757,1.051"/>
							</g>
						</g>
					</g>
				</g>
			</g>
			<g>
				<g>
					<g>
						<g>
							<path style="fill:#FF7564;" d="M395.103,480.832c0.183-4.966,0.242-21.886-0.983-28.235
								c-1.657-8.588-2.366-21.028-7.457-24.53c-0.59-0.406-3.728-3.051-6.015-3.313c-1.846-0.567-22.568-2.377-34.505,5.381
								c-1.536,0.999-2.927,2.155-4.113,3.493c-5.788,6.529-8.062,31.147-7.346,46.438
								C347.294,485.963,378.957,486.272,395.103,480.832z"/>
						</g>
						<g>
							<path style="fill:#FF7564;" d="M407.188,473.487c-8.086-4.454-28.749-32.968-28.749-32.968
								c-4.824-6.393-1.384-8.7-0.226-10.175c3.697-4.707,9.659-7.668,13.916-3.717c6.362,5.903,28.272,36.778,28.42,40.092
								L407.188,473.487z"/>
						</g>
						<path style="fill:none;stroke:#1C1C1B;stroke-miterlimit:10;" d="M332.49,432.108c0,0,6.781,7.426,6.977,13.694"/>
						<line style="fill:none;stroke:#1C1C1B;stroke-miterlimit:10;" x1="363.413" y1="478.606" x2="365.657" y2="478.7"/>
						<g>
							<path style="fill:none;stroke:#1C1C1B;stroke-width:2;stroke-miterlimit:10;" d="M368.74,476.535"/>
							<g>
								<path style="fill:#FF7564;" d="M347.738,482.443"/>
							</g>
							<path style="fill:#FF7564;" d="M372.492,424.235c0,0,0.577,7.509-3.933,8.423c-4.51,0.914-12.314,0.561-10.256-9.58
								L372.492,424.235z"/>
							<path style="fill:#FF5238;" d="M358.303,423.077l14.189,1.158c0,0,0.117,1.595-0.192,3.402l-8.995-0.294
								c-1.757-0.057-3.536-0.233-5.314-0.516C357.923,425.757,358.011,424.519,358.303,423.077z"/>
						</g>
					</g>
					<path style="fill:none;stroke:#1C1C1B;stroke-width:2;stroke-linejoin:round;stroke-miterlimit:10;" d="M389.032,480.036"/>
				</g>
			</g>
			<g>
				<path style="fill:#FF7564;" d="M337.724,376.949c-0.387,8.488-6.888,15.111-14.518,14.793
					c-7.63-0.317-12.87-7.679-12.482-16.166c0.388-8.487,6.255-14.886,13.886-14.569S338.112,368.462,337.724,376.949z"/>
				<path style="fill:#FF5238;" d="M332.039,376.351c-0.229,5.004-4.061,8.909-8.561,8.723c-4.499-0.187-7.961-4.396-7.732-9.399
					c0.229-5.005,4.061-8.91,8.56-8.723C328.806,367.139,332.268,371.347,332.039,376.351z"/>
				<path style="fill:#FF7564;" d="M428.457,390.116c-1.158,8.418-8.234,14.422-15.804,13.412c-7.57-1.01-12.768-8.652-11.61-17.069
					c1.159-8.417,8.234-14.421,15.804-13.411S429.616,381.7,428.457,390.116z"/>
				<path style="fill:#FF5238;" d="M422.2,389.17c-0.683,4.963-4.855,8.503-9.319,7.908c-4.463-0.595-7.528-5.102-6.845-10.064
					c0.683-4.963,4.855-8.503,9.318-7.908C419.818,379.702,422.883,384.207,422.2,389.17z"/>
				<g>
					<path style="fill:#FF7564;" d="M382.054,335.899l-19.548,0.797c-25.662-3.345-34.596,16.925-36.79,37.562l-0.656,6.169
						c-8.964,20.568,12.429,39.081,32.661,41.198l15.721,1.645c20.233,2.116,39.054-7.613,40.607-33.533l0.655-6.169
						C420.411,348.129,402.286,338.016,382.054,335.899z"/>
				</g>
				<g>
					<path style="fill:#FF7564;" d="M382.054,335.899l-19.548,0.797c-25.662-3.345-34.596,16.925-36.79,37.562l-0.656,6.169
						c-8.964,20.568,12.429,39.081,32.661,41.198l15.721,1.645c20.233,2.116,39.054-7.613,40.607-33.533l0.655-6.169
						C420.411,348.129,402.286,338.016,382.054,335.899z"/>
				</g>
				<path style="fill:#1C1C1B;" d="M310.57,357.909c-2.545-11.705-1.018-25.955,14.25-33.589c0,0,9.01-26.759,16.644-35.411
					c7.634-8.652,31.553-11.196,31.553-11.196s6.107-7.125-2.036-10.688c0,0,13.232-1.018,9.161,10.688
					c0,0,12.704-26.683,38.919-17.789c0,0-30.428,6.554-20.597,17.789c3.792,4.333,41.732,9.161,42.75,21.884
					c0,0,1.527-6.616-1.018-12.723c-2.545-6.107-15.777-8.143-15.777-8.143s17.813-1.018,23.411,8.652
					c5.598,9.67-3.563,24.428-3.563,24.428s11.543-9.953,21.884,3.054c7.68,9.66-6.616,19.339-6.616,19.339
					s7.459-11.856-0.684-13.892c-8.143-2.036-14.234,21.457-15.761,32.653c-1.527,11.196-8.143,19.848-8.143,19.848
					s11.705-6.107,13.232-19.848c0,0,5.755,60.911-44.476,60.926c0,0,6.231-4.29,7.042-10.436c0,0,16.282,3.51,17.712-13.339
					c0,0-16.151-1.071-18.405-20.005l-0.901-12.171c0,0-10.819-6.311-26.597-11.721c-15.778-5.41-27.498-3.606-27.498-3.606
					s-12.622-0.451-18.032,7.663c-5.409,8.114-16.126,27.361-13.53,34.386C323.495,384.663,313.115,369.615,310.57,357.909z"/>
				<path style="fill:#1C1C1B;" d="M401.407,380.923c0.102,1.29-2.941,0.314-9.008,0.793c-6.066,0.48-10.877,1.906-10.979,0.616
					c-0.102-1.29,3.922-5.123,9.988-5.603C397.474,376.249,401.305,379.633,401.407,380.923z"/>
				<path style="fill:#1C1C1B;" d="M361.006,379.19c-0.409,1.228-2.831-0.857-8.605-2.778c-5.774-1.921-10.76-2.482-10.352-3.71
					c0.409-1.228,5.608-3.191,11.381-1.27C359.204,373.353,361.414,377.962,361.006,379.19z"/>
				<g>
					<g>
						<path style="fill:#1C1C1B;" d="M351.327,357.014c3.626-4.625,12.927-3.821,15.262,1.721c0.369,0.876,1.821,0.491,1.446-0.399
							c-1.481-3.516-4.846-5.409-8.552-5.721c-3.25-0.273-7.12,0.664-9.217,3.338C349.677,356.705,350.732,357.773,351.327,357.014
							L351.327,357.014z"/>
					</g>
				</g>
				<g>
					<g>
						<path style="fill:#1C1C1B;" d="M400.94,364.435c-0.357-2.779-2.513-4.82-4.934-6.007c-2.483-1.217-5.583-1.85-8.281-0.992
							c-1.422,0.452-2.638,1.344-3.377,2.653c-0.475,0.842,0.82,1.599,1.295,0.757c1.482-2.625,5.046-2.585,7.596-1.878
							c2.553,0.708,5.825,2.54,6.201,5.466C399.561,365.38,401.063,365.392,400.94,364.435L400.94,364.435z"/>
					</g>
				</g>
				<path style="fill:#FF5238;" d="M350.745,389.589c-0.728,3.483-4.958,5.552-9.449,4.62c-4.489-0.932-7.538-4.511-6.809-7.995
					c0.729-3.484,4.959-5.553,9.449-4.621C348.425,382.525,351.474,386.105,350.745,389.589z"/>
				<path style="fill:#FF5238;" d="M403.086,396.354c-0.349,3.542-4.331,6.054-8.896,5.611c-4.564-0.443-7.98-3.673-7.631-7.215
					c0.349-3.542,4.332-6.055,8.896-5.612C400.018,389.581,403.435,392.812,403.086,396.354z"/>
				<g>
					<g>
						<path style="fill:#1C1C1B;" d="M372.011,379.579c-0.246,0.822-0.528,1.642-0.738,2.474c0.277-0.073,0.553-0.146,0.83-0.219
							c-0.419-0.374-0.846-0.745-1.301-1.075c-0.215-0.156-0.434-0.307-0.653-0.457c-0.203-0.138-0.494-0.279-0.628-0.489
							c-0.222-0.348-0.682-0.176-0.726,0.197c-0.038,0.322,0.014,0.676,0.038,0.999c0.024,0.335,0.072,0.668,0.12,1
							c0.046,0.318,0.099,0.636,0.16,0.952c0.066,0.347,0.102,0.722,0.334,1.001c0.2,0.241,0.632,0.105,0.699-0.184
							c0.078-0.336-0.061-0.695-0.13-1.025c-0.066-0.314-0.126-0.63-0.178-0.947c-0.05-0.304-0.09-0.609-0.137-0.914
							c-0.05-0.323-0.057-0.669-0.139-0.985c-0.16,0.16-0.32,0.32-0.479,0.48c0.233,0.061,0.439,0.287,0.613,0.447
							c0.197,0.181,0.388,0.367,0.577,0.557c0.379,0.38,0.765,0.753,1.13,1.147c0.27,0.291,0.713,0.117,0.83-0.219
							c0.282-0.811,0.498-1.65,0.745-2.472C373.161,379.227,372.196,378.963,372.011,379.579L372.011,379.579z"/>
					</g>
				</g>
				<g>
					<g>
						<path style="fill:#F4F4F4;" d="M369.016,366.763c-4.203-12.082-32.918-14.831-36.876-11.89
							c-3.959,2.94,1.821,7.461,1.821,7.461c-0.661,16.614,4.19,20.788,15.493,23.512
							C360.733,388.562,373.219,378.845,369.016,366.763z M357.704,382.384c-15.794,6.072-25.938-15.418-14.105-22.513
							C358.469,350.956,377.995,374.583,357.704,382.384z"/>
						<path style="fill:#1C1C1B;" d="M343.599,359.871c14.869-8.915,34.396,14.712,14.105,22.513
							C341.91,388.456,331.766,366.966,343.599,359.871z"/>
					</g>
					<g>
						<path style="fill:#F4F4F4;" d="M389.952,392.096c11.625-0.143,17.283-3.134,20.332-19.479c0,0,6.64-3.123,3.434-6.869
							s-31.813-7.451-38.597,3.395C368.337,379.989,378.351,392.238,389.952,392.096z M401.434,368.074
							c9.96,9.548-4.707,28.245-18.757,18.814C364.628,374.772,388.918,356.076,401.434,368.074z"/>
						<path style="fill:#1C1C1B;" d="M401.434,368.074c-12.516-11.997-36.806,6.698-18.757,18.814
							C396.726,396.319,411.394,377.621,401.434,368.074z"/>
					</g>
					<line style="fill:none;stroke:#F4F4F4;stroke-miterlimit:10;" x1="343.556" y1="374.186" x2="360.462" y2="363.698"/>
					<line style="fill:none;stroke:#F4F4F4;stroke-miterlimit:10;" x1="343.933" y1="366.603" x2="355.289" y2="360.972"/>
					<line style="fill:none;stroke:#F4F4F4;stroke-miterlimit:10;" x1="379.397" y1="379.65" x2="398.034" y2="366.497"/>
					<line style="fill:none;stroke:#F4F4F4;stroke-miterlimit:10;" x1="379.301" y1="374.159" x2="389.613" y2="367.218"/>
				</g>
				<path style="fill:#1C1C1B;" d="M360.489,386.711c6.639-0.234,6.622,4.768,9.317,4.432c2.695-0.336,5.99-4.307,9.514-1.241
					c3.524,3.065,1.286,17.476-15.772,13.25C351.612,400.194,353.852,386.945,360.489,386.711z"/>
				<path style="fill:#FF5238;" d="M380.677,394.999c-1.767-0.628-3.694-1.009-5.728-1.062c-6.617-0.171-12.405,3.063-14.975,7.809
					c1.015,0.58,2.195,1.063,3.574,1.404C375.422,406.093,380.11,400.006,380.677,394.999z"/>
				<path style="fill:none;stroke:#1C1C1B;stroke-width:1.5;stroke-miterlimit:10;" d="M360.489,386.711
					c6.639-0.234,6.622,4.768,9.317,4.432c2.695-0.336,5.99-4.307,9.514-1.241c3.524,3.065,1.286,17.476-15.772,13.25
					C351.612,400.194,353.852,386.945,360.489,386.711z"/>
				<path style="fill:none;stroke:#1C1C1B;stroke-miterlimit:10;" d="M415.719,403.795c0,0-3.796,0.285-4.973-0.34
					c0,0-6.757,21.882-35.434,19.97"/>
				<line style="fill:none;stroke:#1C1C1B;stroke-miterlimit:10;" x1="323.322" y1="410.175" x2="326.32" y2="402.815"/>
				<path style="fill:none;stroke:#1C1C1B;stroke-miterlimit:10;" d="M323.206,391.742c0,0,0.067,21.986,31.288,29.079"/>
			</g>
			<g>
				<g>
					<path style="fill:#FF7564;" d="M331.675,482.107c0,0-1.21,7.913,0.378,17.893h64.543c0.68-2.535,1.571-8.309-0.778-17.263
						L331.675,482.107z"/>
					<path style="fill:#006352;" d="M347.419,424.95c0,0-12.666,17.622-13.767,40.201l-2.297,17.475c0,0,25.646,5.74,31.51,17.38
						l4.726-0.002c0,0,18.37-13.321,28.509-15.786c0,0-0.771-41.645-10.133-60.369l-5.32,0.905c0,0-4.047,21.134-14.489,21.134
						c-10.441,0-11.601-22.429-11.601-22.429L347.419,424.95z"/>
				</g>
				<g>
					<g>
						<g>
							<g>
								<path style="fill:#FF7564;" d="M412.662,476.629c-14.972,4.56-29.897,0.127-29.897,0.127l0.297-9.481
									c0,0,14.948-4.06,25.349-6.874c4.22-1.142,9.847,0.44,11.097,4.511l0.954,1.84
									C422.104,472.103,418.154,474.956,412.662,476.629z"/>
								<path style="fill:none;stroke:#1C1C1B;stroke-miterlimit:10;" d="M396.969,463.664c0,0,5.792-2.518,9.318-2.518"/>
								<g>
									<g>
										<g>
											<path style="fill:#FF7564;" d="M385.288,471.936l-1.092,3.444c-1.043,3.29-4.644,5.134-8.041,4.118l0,0
												c-3.396-1.016-5.303-4.505-4.26-7.795l1.091-3.441c1.043-3.29,4.644-5.134,8.041-4.118l0.003,0.001
												C384.424,465.16,386.33,468.647,385.288,471.936z"/>
											<path style="fill:#FF7564;" d="M365.102,463.655c0.74-1.883,10.88,1.785,10.699,4.751
												C375.626,471.254,364.234,465.863,365.102,463.655z"/>
										</g>
									</g>
									<path style="fill:#FF7564;" d="M380.4,467.482c0,0,1.456-4.427-1.006-6.5c-1.191-1.002-3.834-2.654-4.394-1.858
										c-1.585,2.254,1.173,3.914,2.108,4.275c0,0-0.523,3.415,0.107,4.03"/>
									<path style="fill:#FF7564;" d="M364.413,474.319c-0.247-2.637,10.81-1.613,10.835,0.783
										C375.272,477.419,364.695,477.331,364.413,474.319z"/>
									<path style="fill:#FF7564;" d="M364.543,468.129c0.405-1.135,2.783-0.416,5.134,0.34c2.094,0.673,4.057,1.211,3.848,2.414
										C372.993,473.947,363.445,471.204,364.543,468.129z"/>
									<path style="fill:#FF7564;" d="M369.228,481.421c-1.548-1.651,6.061-5.869,6.806-4.788
										C377.621,478.937,370.502,482.779,369.228,481.421z"/>
								</g>
							</g>
						</g>
					</g>
				</g>
			</g>
		</g>
	</g>
	<g>
		<g>
			<g>
				<path style="fill:#006352;" d="M698.188,302.688c-1.989-7.972-178.443-8.377-185.629-6.351
					c-7.186,2.026-1.059,39.342,3.447,60.824c4.506,21.483-13.145,45.077-9.857,92.501c1.491,21.502,4.009,38.338,6.318,50.338
					h182.541c3.683-55.511-1.219-170.733-1.219-170.733S700.178,310.659,698.188,302.688z"/>
				<path style="fill:#FF5238;" d="M698.188,302.688c-0.875-3.509-35.55-5.551-74.712-6.566
					C615.146,350.53,602.349,448.319,608.826,500h86.182c3.683-55.511-1.219-170.733-1.219-170.733S700.178,310.659,698.188,302.688
					z"/>
				<path style="fill:#F4F4F4;" d="M655.217,500c-7.302-48.842-18.515-133.387-12.593-157.075l12.948-45.657
					c-27.477-1.324-63.345-1.9-92.317-1.957c-0.162,31.677,1.044,79.045,8.889,100.261c0,0-16.193,57.652-17.278,104.428H655.217z"
					/>
			</g>
			<path style="fill:none;stroke:#1C1C1B;stroke-width:2;stroke-miterlimit:10;" d="M520.852,469.579c0,0,10.4-11.787,33.974-16.64"
				/>
			<path style="fill:none;stroke:#1C1C1B;stroke-width:2;stroke-miterlimit:10;" d="M638.027,425.205c0,0,32.587,2.08,47.147,12.48"
				/>
			<path style="fill:none;stroke:#1C1C1B;stroke-width:2;stroke-miterlimit:10;" d="M639.414,418.965c0,0,27.734-4.16,45.067,4.853"
				/>
			<path style="fill:none;stroke:#1C1C1B;stroke-width:2;stroke-miterlimit:10;" d="M679.628,378.751c0,0,5.148-34.23,10.4-44.374
				c5.253-10.143,14.934-27.325,8.16-31.69c-6.774-4.364-91.362-7.138-91.362-7.138"/>
		</g>
		<g>
			<g>
				<g>
					<path style="fill:#FFB300;" d="M626.571,500c-0.721-9.664-2.059-24.088-2.059-24.088l-57.74-4.096
						c0,0-2.162,5.128-2.172,11.087c-0.008,4.161,0.058,12.111-0.015,17.096h30.094c-0.426-2.285-0.802-4.131-0.802-4.131
						L595.16,500H626.571z"/>
					<g>
						<path style="fill:#006352;" d="M625.42,486.015c-0.108-1.233-0.211-2.401-0.308-3.488
							c-22.168,7.246-48.039,2.451-60.486-0.699c-0.016,0.355-0.025,0.714-0.025,1.077c-0.002,0.874,0,1.918,0.003,3.063
							C591.357,492.679,615.036,488.57,625.42,486.015z"/>
						<path style="fill:#006352;" d="M626.137,494.472c-0.085-1.04-0.172-2.089-0.261-3.136
							c-19.015,3.609-45.544,1.812-61.258,0.191c0.003,1.645,0.003,3.306-0.002,4.868c9.856,1.299,20.124,1.503,29.598,1.166
							c-0.2-1.023-0.336-1.69-0.336-1.69l0.523,1.684C607.683,497.069,619.379,495.53,626.137,494.472z"/>
					</g>
					<path style="fill:none;stroke:#1C1C1B;stroke-miterlimit:10;" d="M564.886,486.373c0,0,7.786-1.932,6.218-8.744"/>
					<path style="fill:none;stroke:#1C1C1B;stroke-miterlimit:10;" d="M611.96,479.527c0,0,4.236,10.831,11.898,10.236"/>
					<path style="fill:none;stroke:#1C1C1B;stroke-miterlimit:10;" d="M584.504,493.126c0,0,9.487,4.528,20.887,1.462"/>
				</g>
			</g>
			<g>
				<g>
					<g>
						<path style="fill:#FF7564;" d="M547.746,406.966c9.147,1.244,32.357,18.688,32.357,18.688
							c6.802,4.228,4.424,7.619,3.874,9.411c-1.754,5.722-6.25,10.631-11.645,8.478c-8.06-3.216-33.283-22.414-34.614-25.453
							L547.746,406.966z"/>
					</g>
					<g>
						<g>
							<g>
								<path style="fill:#FF7564;" d="M537.324,407.145c5.569-14.627,18.217-23.706,18.217-23.706l7.311,6.044
									c0,0-5.95,14.301-10.099,24.245c-1.683,4.034-6.381,7.513-10.364,6.006l-2.039-0.374
									C535.117,417.38,535.282,412.51,537.324,407.145z"/>
								<path style="fill:#FF5238;" d="M546.353,392.234c2.225,3.825,5.47,8.424,10.018,12.816c3.32-7.97,6.481-15.567,6.481-15.567
									l-7.311-6.044C555.542,383.439,551.119,386.615,546.353,392.234z"/>
								<path style="fill:none;stroke:#1C1C1B;stroke-miterlimit:10;" d="M547.746,406.966c0,0,7.803,1.857,11.524,4.791"/>
								<g>
									<g>
										<g>
											<path style="fill:#FF7564;" d="M557.806,388.387l-2.052-2.973c-1.961-2.841-1.212-6.816,1.673-8.878l0,0
												c2.884-2.062,6.81-1.431,8.771,1.409l2.051,2.971c1.961,2.84,1.212,6.816-1.673,8.878l-0.002,0.002
												C563.691,391.855,559.766,391.225,557.806,388.387z"/>
											<path style="fill:#FF7564;" d="M576.719,377.507c1.035,1.738-8.077,7.505-10.31,5.544
												C564.265,381.169,575.505,375.469,576.719,377.507z"/>
										</g>
									</g>
									<path style="fill:#FF7564;" d="M564.321,387.252c0,0,2.606,3.863,5.753,3.188c1.522-0.327,4.446-1.404,4.16-2.334
										c-0.81-2.633-3.812-1.471-4.67-0.953c0,0-2.379-2.506-3.251-2.385"/>
									<path style="fill:#FF7564;" d="M568.712,370.429c2.235,1.421-5.348,9.532-7.257,8.083
										C559.609,377.111,566.159,368.806,568.712,370.429z"/>
									<path style="fill:#FF7564;" d="M573.525,374.325c0.649,1.016-1.377,2.455-3.414,3.849
										c-1.815,1.243-3.443,2.465-4.265,1.563C563.75,377.437,571.767,371.573,573.525,374.325z"/>
									<path style="fill:#FF7564;" d="M560.15,369.883c2.253-0.212,0.924,8.387-0.386,8.313
										C556.971,378.038,558.296,370.057,560.15,369.883z"/>
								</g>
								<path style="fill:none;stroke:#1C1C1B;stroke-linejoin:round;stroke-miterlimit:10;" d="M559.908,375.571
									c0,0,5.945,1.301,8.34,5.344"/>
								<path style="fill:none;stroke:#1C1C1B;stroke-linejoin:round;stroke-miterlimit:10;" d="M564.41,385.034
									c0,0,3.371-0.45,4.719,1.208"/>
							</g>
						</g>
					</g>
				</g>
			</g>
			<g>
				<g>
					<g>
						<g>
							<g>
								<path style="fill:#FF7564;" d="M653.511,461.658c-3.681-8.466-30.144-31.698-30.144-31.698
									c-5.916-5.399-8.533-2.189-10.109-1.173c-5.031,3.242-8.535,8.902-4.998,13.509c5.284,6.884,33.982,31.578,37.268,32.034
									L653.511,461.658z"/>
							</g>
						</g>
						<g>
							<g>
								<g>
									<path style="fill:#FF7564;" d="M653.04,471.894c13.489-7.937,20.325-21.926,20.325-21.926l-7.181-6.197
										c0,0-13.104,8.258-22.214,14.012c-3.696,2.334-6.34,7.548-4.188,11.223l0.709,1.948
										C643.319,475.783,648.093,474.806,653.04,471.894z"/>
									<g>
										<g>
											<g>
												<path style="fill:#FF7564;" d="M668.109,448.563l3.275,1.526c3.129,1.458,6.923,0.055,8.473-3.134l0,0
													c1.55-3.188,0.272-6.953-2.856-8.411l-3.272-1.525c-3.128-1.458-6.922-0.055-8.473,3.134l-0.001,0.002
													C663.704,443.342,664.982,447.106,668.109,448.563z"/>
												<path style="fill:#FF7564;" d="M675.672,428.097c-1.886-0.729-6.048,9.219-3.742,11.092
													C674.145,440.988,677.884,428.952,675.672,428.097z"/>
											</g>
										</g>
										<path style="fill:#FF7564;" d="M668.138,441.951c0,0-4.245-1.923-4.105-5.139c0.068-1.555,0.641-4.618,1.605-4.492
											c2.732,0.358,2.088,3.512,1.721,4.445c0,0,2.869,1.926,2.895,2.806"/>
										<path style="fill:#FF7564;" d="M683.99,434.807c-1.775-1.966-8.503,6.867-6.755,8.507
											C678.924,444.899,686.016,437.053,683.99,434.807z"/>
										<path style="fill:#FF7564;" d="M679.344,430.714c-1.11-0.47-2.19,1.768-3.224,4.01c-0.922,1.997-1.854,3.806-0.827,4.466
											C677.91,440.871,682.351,431.986,679.344,430.714z"/>
										<path style="fill:#FF7564;" d="M685.96,443.157c-0.168-2.257-8.423,0.491-8.131,1.771
											C678.452,447.656,686.098,445.014,685.96,443.157z"/>
									</g>
									<path style="fill:none;stroke:#1C1C1B;stroke-linejoin:round;stroke-miterlimit:10;" d="M680.392,444.347
										c0,0-2.277-5.644-6.664-7.328"/>
									<path style="fill:none;stroke:#1C1C1B;stroke-linejoin:round;stroke-miterlimit:10;" d="M670.309,441.492
										c0,0-0.12-3.399-1.98-4.451"/>
								</g>
							</g>
						</g>
						<g>
							<path style="fill:#FF7564;" d="M625.247,479.209c0.348-4.957,0.969-21.866-0.045-28.253
								c-1.371-8.638-1.666-21.095-6.639-24.764c-0.577-0.425-3.625-3.173-5.902-3.511c-1.826-0.628-22.476-3.125-34.665,4.233
								c-1.568,0.947-2.997,2.057-4.227,3.355c-6.002,6.334-9.092,30.863-8.883,46.169
								C577.294,482.749,608.929,484.109,625.247,479.209z"/>
						</g>
						<path style="fill:none;stroke:#1C1C1B;stroke-miterlimit:10;" d="M564.286,428.433c0,0,6.53,7.647,6.519,13.918"/>
						<line style="fill:none;stroke:#1C1C1B;stroke-miterlimit:10;" x1="593.648" y1="475.932" x2="595.887" y2="476.1"/>
						<g>
							<path style="fill:none;stroke:#1C1C1B;stroke-width:2;stroke-miterlimit:10;" d="M599.041,474.039"/>
							<g>
								<path style="fill:#FF7564;" d="M577.855,479.246"/>
							</g>
							<path style="fill:#FF7564;" d="M604.527,421.892c0,0,0.327,7.524-4.21,8.287c-4.537,0.764-12.326,0.152-9.932-9.915
								L604.527,421.892z"/>
							<path style="fill:#FF5238;" d="M590.384,420.264l14.143,1.628c0,0,0.064,1.598-0.305,3.394l-8.98-0.592
								c-1.754-0.116-3.526-0.35-5.294-0.692C589.916,422.929,590.044,421.695,590.384,420.264z"/>
						</g>
						<path style="fill:none;stroke:#1C1C1B;stroke-linejoin:round;stroke-miterlimit:10;" d="M643.706,460.321
							c0,0,1.482-3.875,4.9-5.242"/>
					</g>
					<path style="fill:none;stroke:#1C1C1B;stroke-width:2;stroke-linejoin:round;stroke-miterlimit:10;" d="M619.206,478.211"/>
				</g>
			</g>
			<g>
				<g>
					<path style="fill:#FF7564;" d="M571.348,373.478c-0.669,8.47-7.385,14.874-15.001,14.303
						c-7.616-0.57-12.608-8.102-11.938-16.572c0.67-8.47,6.746-14.67,14.362-14.1C566.386,357.68,572.018,365.009,571.348,373.478z"
						/>
					<path style="fill:#FF5238;" d="M565.686,372.692c-0.395,4.994-4.355,8.77-8.846,8.434c-4.49-0.336-7.81-4.657-7.416-9.651
						c0.395-4.994,4.355-8.77,8.845-8.434C562.76,363.377,566.081,367.698,565.686,372.692z"/>
					<path style="fill:#FF7564;" d="M661.594,389.65c-1.437,8.375-8.708,14.141-16.24,12.88
						c-7.533-1.261-12.474-9.071-11.037-17.445c1.437-8.373,8.708-14.139,16.241-12.879
						C658.09,373.467,663.032,381.277,661.594,389.65z"/>
					<path style="fill:#FF5238;" d="M655.372,388.496c-0.847,4.937-5.135,8.337-9.576,7.594c-4.441-0.743-7.354-5.349-6.507-10.286
						c0.847-4.937,5.134-8.337,9.576-7.594C653.306,378.954,656.219,383.559,655.372,388.496z"/>
					<g>
						<path style="fill:#FF7564;" d="M617.016,333.922l-19.563,0.147c-25.537-4.195-35.139,15.768-38.017,36.32l-0.86,6.143
							c-9.642,20.259,11.124,39.472,31.276,42.259l15.657,2.165c20.151,2.787,39.285-6.312,41.698-32.166l0.86-6.143
							C654.946,347.419,637.167,336.71,617.016,333.922z"/>
					</g>
					<g>
						<path style="fill:#FF7564;" d="M617.016,333.922l-19.563,0.147c-25.537-4.195-35.139,15.768-38.017,36.32l-0.86,6.143
							c-9.642,20.259,11.124,39.472,31.276,42.259l15.657,2.165c20.151,2.787,39.285-6.312,41.698-32.166l0.86-6.143
							C654.946,347.419,637.167,336.71,617.016,333.922z"/>
					</g>
					<g>
						<path style="fill:#FFE9D1;" d="M622.045,386.851L622.045,386.851c5.116,0.395,9.587-3.516,9.986-8.736l0.383-5.003
							c0.399-5.219-3.424-9.77-8.54-10.165l0,0c-5.116-0.395-9.586,3.516-9.986,8.735l-0.382,5.004
							C613.105,381.905,616.929,386.456,622.045,386.851"/>
						<path style="fill:#1C1C1B;" d="M613.888,371.682c0.215-2.824,1.63-5.258,3.687-6.841c0.752-0.213,1.534-0.305,2.335-0.243
							c4.513,0.348,7.82,5.235,7.387,10.915c-0.435,5.68-4.446,10.002-8.96,9.653c-0.41-0.032-0.805-0.113-1.193-0.216
							c-2.424-1.879-3.894-4.933-3.639-8.264L613.888,371.682z"/>
					</g>
					<g>
						<path style="fill:#FFE9D1;" d="M584.802,381.652L584.802,381.652c5.101,0.557,9.693-3.21,10.258-8.414l0.541-4.988
							c0.565-5.203-3.113-9.874-8.213-10.431l0,0c-5.101-0.557-9.693,3.21-10.258,8.414l-0.541,4.989
							C576.024,376.425,579.701,381.095,584.802,381.652"/>
						<path style="fill:#1C1C1B;" d="M577.131,366.232c0.305-2.816,1.796-5.203,3.902-6.72c0.758-0.189,1.543-0.256,2.342-0.169
							c4.5,0.492,7.65,5.481,7.036,11.144c-0.615,5.663-4.761,9.856-9.262,9.364c-0.409-0.045-0.801-0.138-1.186-0.254
							c-2.363-1.955-3.735-5.055-3.375-8.376L577.131,366.232z"/>
					</g>
					<path style="fill:#1C1C1B;" d="M645.804,393.358c0,0-3.204-27.57-1.955-37.598c0,0-13.031-7.299-14.587-15.589
						c0,0-4.404,8.55-20.924,9.832l5.897-12.162c0,0-12.984,5.061-30.449,7.227l6.278-9.861c0,0-10.56,14.754-21.167,17.148
						c0,0-0.923,19.717-10.32,24.178c0,0-9.765-12.029-6.43-29.769l-5.318,8.52c0,0-7.226-16.718,5.986-28.637l-8.291,1.556
						c0,0,6.489-29.994,44.255-23.247l-12.147-6.354c0,0,41.391-19.68,67.745,13.693l4.404-8.55c0,0,7.469,9.402,1.891,11.964
						c0,0,6.858,0.228,10.258,8.122l-8.657-1.203c0,0,17.634,6.536,17.895,26.227l-11.233-6.323c0,0,15.974,15.177,1.879,39.884
						L645.804,393.358z"/>
					<g>
						<g>
							<path style="fill:#1C1C1B;" d="M585.623,353.988c1.879-2.24,5.108-2.892,7.9-2.646c3.084,0.272,6.136,1.909,7.285,4.913
								c0.341,0.893,1.792,0.505,1.446-0.399c-1.363-3.562-4.694-5.551-8.378-5.978c-3.247-0.376-7.126,0.441-9.314,3.049
								C583.946,353.663,585.002,354.729,585.623,353.988L585.623,353.988z"/>
						</g>
					</g>
					<g>
						<g>
							<path style="fill:#1C1C1B;" d="M635.087,365.893c-0.264-2.786-2.384-4.894-4.754-6.155c-2.444-1.301-5.523-2.015-8.246-1.247
								c-1.438,0.406-2.671,1.272-3.452,2.555c-0.503,0.827,0.793,1.581,1.295,0.757c1.566-2.572,5.155-2.384,7.665-1.596
								c2.543,0.797,5.713,2.746,5.992,5.687C633.678,366.845,635.179,366.855,635.087,365.893L635.087,365.893z"/>
						</g>
					</g>
					<path style="fill:#FF5238;" d="M582.819,389.196c-0.843,3.457-5.14,5.385-9.597,4.304c-4.456-1.081-7.384-4.759-6.54-8.216
						c0.844-3.458,5.141-5.385,9.597-4.305C580.735,382.06,583.664,385.739,582.819,389.196z"/>
					<path style="fill:#FF5238;" d="M636.602,396.509c-0.466,3.528-4.53,5.907-9.077,5.313c-4.546-0.594-7.854-3.936-7.387-7.464
						c0.467-3.529,4.53-5.908,9.077-5.313C633.76,389.639,637.068,392.981,636.602,396.509z"/>
					<g>
						<g>
							<path style="fill:#1C1C1B;" d="M605.524,377.26c-0.274,0.813-0.583,1.624-0.82,2.448c0.277-0.073,0.553-0.146,0.83-0.219
								c-0.398-0.38-0.804-0.756-1.239-1.093c-0.214-0.166-0.431-0.328-0.65-0.488c-0.202-0.148-0.49-0.305-0.619-0.523
								c-0.156-0.263-0.659-0.253-0.712,0.093c-0.051,0.33-0.024,0.676-0.013,1.009c0.012,0.34,0.044,0.677,0.082,1.015
								c0.039,0.341,0.084,0.682,0.137,1.021c0.056,0.361,0.081,0.73,0.31,1.026c0.198,0.257,0.625,0.092,0.699-0.184
								c0.089-0.334-0.049-0.719-0.108-1.051c-0.052-0.294-0.098-0.59-0.136-0.886c-0.04-0.313-0.072-0.627-0.108-0.94
								c-0.038-0.332-0.036-0.684-0.111-1.009c-0.16,0.16-0.32,0.32-0.479,0.479c0.221,0.066,0.417,0.299,0.579,0.457
								c0.196,0.192,0.386,0.389,0.573,0.59c0.367,0.394,0.741,0.78,1.094,1.187c0.268,0.309,0.707,0.099,0.83-0.219
								c0.31-0.8,0.553-1.633,0.826-2.446c0.086-0.256-0.099-0.546-0.349-0.615C605.866,376.836,605.61,377.004,605.524,377.26
								L605.524,377.26z"/>
						</g>
					</g>
				</g>
				<g>
					<path style="fill:#FFE9D1;" d="M594.845,384.073c5.417-0.434,5.924,4.423,7.905,3.418c5.348-2.714,6.717-2.612,9.328,0.178
						c3.682,3.935-2.133,11.227-13.301,8.629C586.254,393.384,589.429,384.506,594.845,384.073z"/>
				</g>
				<path style="fill:none;stroke:#1C1C1B;stroke-miterlimit:10;" d="M648.408,402.899c0,0-3.803,0.158-4.959-0.505
					c0,0-7.48,21.645-36.078,18.783"/>
				<path style="fill:none;stroke:#1C1C1B;stroke-miterlimit:10;" d="M556.347,387.781c0,0-0.663,21.976,30.306,30.101"/>
			</g>
		</g>
	</g>
	<g>
		<g>
			<path style="fill:#009F9D;" d="M0,132.899c1.506-5.448,2.887-10.961,6.445-15.262c5.912-7.146,16.075-8.889,23.75-14.096
				c22.286-15.12,17.99-54.051,41.411-67.345c14.85-8.429,33.383-2.092,50.429-3.088c23.521-1.373,44.18-16.935,67.569-19.773
				C224.171,9.143,257.273,33.258,291.95,30.1c20.608-1.877,39.519-13.286,60.17-14.606c30.794-1.969,60.278,18.718,90.811,14.255
				c25.279-3.695,47.676-24.312,72.949-20.576c15.506,2.292,28.214,13.455,43.15,18.209c15.761,5.016,32.886,2.592,49.216,5.219
				c28.375,4.565,51.801,23.69,76.199,38.881C704.108,83.722,727.742,93.789,750,91.308V0H0V132.899z"/>
		</g>
		<path style="fill:#F4F4F4;" d="M0,132.899c1.506-5.448,2.887-10.961,6.445-15.262c5.912-7.146,16.075-8.889,23.75-14.096
			c22.286-15.12,17.99-54.051,41.411-67.345c14.85-8.429,33.383-2.092,50.429-3.088c23.521-1.373,44.18-16.935,67.569-19.773
			C224.171,9.143,257.273,33.258,291.95,30.1c20.608-1.877,39.519-13.286,60.17-14.606c30.794-1.969,60.278,18.718,90.811,14.255
			c25.279-3.695,47.676-24.312,72.949-20.576c15.506,2.292,28.214,13.455,43.15,18.209c15.761,5.016,32.886,2.592,49.216,5.219
			c28.375,4.565,51.801,23.69,76.199,38.881C704.108,83.722,727.742,93.789,750,91.308V64.74
			c-6.984,1.312-7.25,13.676-19.222,14.063c-16.982,0.548-10.956-13.147-27.938-20.269c-16.982-7.121-3.287,1.096-15.886,4.382
			c-12.6,3.287-22.46-15.339-31.773-24.103c-9.313-8.765-6.026-3.287-18.078-5.478c-12.051-2.191-14.243-14.791-30.677-18.078
			c-16.434-3.287-23.556,1.644-44.92,2.739c-21.365,1.096-19.173-9.313-38.894-14.791c-19.721-5.478-32.32,4.382-43.276,8.765
			c-10.956,4.382-6.026,1.096-20.817,1.643c-14.79,0.548-13.695,5.478-30.129,7.669c-16.434,2.191-37.251-15.339-59.163-13.695
			c-21.912,1.643-19.721,2.739-39.99,1.643c-20.269-1.096-12.052,2.191-29.034,10.408c-16.982,8.217-16.982,3.287-35.607-3.287
			c-18.625-6.574-14.243-3.835-26.842-2.191c-12.6,1.643-37.798-10.408-56.424-9.861c-18.625,0.548-20.817,12.6-51.494,19.173
			c-20.502,4.393-31.225-5.478-52.589,2.191c-21.364,7.669-16.434,18.077-32.868,30.677S33.97,74.421,27.944,90.855
			c-6.026,16.434-7.122,6.026-20.269,11.504c-3.389,1.412-5.862,3.518-7.675,5.891V132.899z"/>
		<path style="fill:#F4F4F4;" d="M41.048,50.212c0.772-5.147,6.948-7.978,7.978-3.86C50.055,50.469,40.276,55.359,41.048,50.212z"/>
		<path style="fill:#F4F4F4;" d="M18.658,91.644c2.316-0.257,4.89,3.345,0.257,4.632C14.284,97.563,16.342,91.902,18.658,91.644z"/>
		<path style="fill:#F4F4F4;" d="M22.004,87.784c0,0-1.544-3.603,1.029-4.375C25.607,82.637,23.291,87.012,22.004,87.784z"/>
		<path style="fill:#F4F4F4;" d="M111.475,19.852c2.206-2.329,5.148-1.226,4.29,1.103C114.907,23.284,109.268,22.181,111.475,19.852
			z"/>
		<path style="fill:#F4F4F4;" d="M122.261,19.975c2.329-0.613,3.065,1.961,0.981,2.942
			C121.158,23.897,119.932,20.587,122.261,19.975z"/>
		<path style="fill:#F4F4F4;" d="M119.932,14.459c1.839-0.49,2.084,2.329,0.49,2.942C118.829,18.013,118.094,14.949,119.932,14.459z
			"/>
		<path style="fill:#F4F4F4;" d="M70.656,21.446c2.206-0.368,2.329,2.329,0.49,2.819C69.307,24.755,68.449,21.813,70.656,21.446z"/>
		<path style="fill:#F4F4F4;" d="M206.718,4.652c1.716,0.245,2.329,1.716,0.368,1.961C205.125,6.859,205.002,4.407,206.718,4.652z"
			/>
		<path style="fill:#F4F4F4;" d="M227.802,10.904c0,0,0-0.192,0.06-0.448c0.119-0.509,0.474-1.268,1.534-1.268
			c1.594,0,1.839,2.084,0.245,2.206C228.047,11.517,227.802,10.904,227.802,10.904z"/>
		<path style="fill:#F4F4F4;" d="M236.382,10.904c0.981,0.858,0.735,2.942-0.735,2.697
			C234.176,13.355,235.402,10.046,236.382,10.904z"/>
		<path style="fill:#F4F4F4;" d="M682.665,55.051c3.547-0.591,6.503,3.153,1.774,5.124
			C679.709,62.146,679.118,55.642,682.665,55.051z"/>
		<path style="fill:#F4F4F4;" d="M701.19,48.548c4.927-0.985,5.912,3.744,2.365,4.927S696.263,49.533,701.19,48.548z"/>
		<path style="fill:#F4F4F4;" d="M691.139,47.562c3.941-0.788,7.292,3.941,2.168,5.124S687.198,48.351,691.139,47.562z"/>
		<path style="fill:#F4F4F4;" d="M730.75,67.86c5.518-1.379,11.233,4.533,5.124,6.7C729.765,76.729,725.232,69.24,730.75,67.86z"/>
		<path style="fill:#F4F4F4;" d="M738.436,60.569c1.774-2.759,9.854-5.321,8.08-0.591S737.166,62.545,738.436,60.569z"/>
		<path style="fill:#F4F4F4;" d="M736.071,46.183c3.153,0.591,2.956,4.139-0.394,4.73C732.327,51.504,732.918,45.592,736.071,46.183
			z"/>
		<path style="fill:#F4F4F4;" d="M662.17,40.271c3.35-0.394,7.292,3.941,4.927,5.518C664.732,47.365,658.82,40.665,662.17,40.271z"
			/>
		<path style="fill:#F4F4F4;" d="M674.585,49.533c2.365,0.788,2.562,3.35-0.394,3.547C671.235,53.277,672.22,48.745,674.585,49.533z
			"/>
		<path style="fill:#F4F4F4;" d="M742.18,37.315c0,0-0.394-2.759,1.971-2.562c2.365,0.197,3.744,3.547,0.197,3.941
			C740.801,39.088,742.18,37.315,742.18,37.315z"/>
		<path style="fill:#F4F4F4;" d="M554.175,9.725c3.153-0.591,3.744,2.956,0.985,3.941C552.402,14.652,551.022,10.316,554.175,9.725z
			"/>
		<path style="fill:#F4F4F4;" d="M542.796,9.159c1.727-0.561,2.937,1.296,1.641,2.03C543.141,11.923,541.068,9.721,542.796,9.159z"
			/>
		<path style="fill:#F4F4F4;" d="M547.59,7.389c1.857-0.389,2.419,1.684,0.993,2.203C547.158,10.109,545.733,7.777,547.59,7.389z"/>
		<path style="fill:#F4F4F4;" d="M130.088,19.468c-3.609-2.807,17.645-8.622,15.64-4.411
			C143.723,19.267,133.697,22.275,130.088,19.468z"/>
		<path style="fill:#F4F4F4;" d="M147.934,11.347c1.203-2.005,6.216-4.612,6.316-1.704C154.35,12.55,146.731,13.352,147.934,11.347z
			"/>
		<path style="fill:#F4F4F4;" d="M49.18,39.018c-0.702-5.614,9.625-15.139,10.627-9.324C60.81,35.509,49.882,44.633,49.18,39.018z"
			/>
		<path style="fill:#F4F4F4;" d="M3.563,101.077c-3.308-0.702-2.105-8.321,2.105-9.023c4.211-0.702,9.725,3.208,7.82,5.213
			C11.584,99.273,6.872,101.779,3.563,101.077z"/>
		<path style="fill:#F4F4F4;" d="M23.815,79.221c-2.105-1.905,2.607-9.224,4.311-6.617C29.831,75.211,25.921,81.126,23.815,79.221z"
			/>
		<path style="fill:#F4F4F4;" d="M409.706,11.991c2.909-5.702,22.227,1.513,17.106,5.353
			C421.692,21.184,406.797,17.693,409.706,11.991z"/>
		<path style="fill:#F4F4F4;" d="M430.885,12.572c2.676-2.677,12.684-1.746,9.193,1.629
			C436.587,17.576,428.209,15.249,430.885,12.572z"/>
		<path style="fill:#F4F4F4;" d="M422.739,7.336c2.677-2.677,9.659-0.815,7.331,1.629C427.743,11.409,420.063,10.012,422.739,7.336z
			"/>
	</g>
	<g>
		<g>
			<path style="fill:#FF5238;" d="M32.155,170.041c0,0-10.616-33.348-5.074-28.716c5.542,4.632,8.736,26.337,11.782,23.444
				c3.046-2.893,13.39-22.277,15.785-15.882c2.395,6.395-12.876,21.661-8.996,24.277c3.88,2.616,20.514,10.244,15.41,15.6
				c-5.104,5.356-16.582-14.697-18.768-9.83c-2.186,4.867-5.52,22.371-10.801,21.931c-5.281-0.439,3.116-22.497-0.419-22.523
				c-3.535-0.026-26.598,4.543-24.615-2.585C8.442,168.629,32.155,170.041,32.155,170.041z"/>
			<path style="fill:none;stroke:#1C1C1B;stroke-width:0.75;stroke-miterlimit:10;" d="M8.621,175.107
				c0,0,16.387-3.306,23.862-1.581"/>
			<path style="fill:none;stroke:#1C1C1B;stroke-width:0.75;stroke-miterlimit:10;" d="M40.677,168.782
				c0,0,6.9-16.387,11.787-18.831"/>
			<path style="fill:none;stroke:#1C1C1B;stroke-width:0.75;stroke-miterlimit:10;" d="M26.733,143.482
				c0,0,7.331,19.262,8.625,24.293"/>
			<path style="fill:none;stroke:#1C1C1B;stroke-width:0.75;stroke-miterlimit:10;" d="M31.19,198.394
				c0,0,2.444-18.112,5.606-21.706"/>
			<path style="fill:none;stroke:#1C1C1B;stroke-width:0.75;stroke-miterlimit:10;" d="M42.833,175.251
				c0,0,14.662,9.775,16.675,12.937"/>
			<path style="fill:none;stroke:#1C1C1B;stroke-width:0.75;stroke-miterlimit:10;" d="M24.011,179.223c0,0,5.246-1.713,7.066-0.428
				c2.316,1.635-4.313,20.516,0.415,22.07"/>
			<path style="fill:none;stroke:#1C1C1B;stroke-width:0.75;stroke-miterlimit:10;" d="M37.395,193.249
				c0,0,4.161-14.742,5.782-15.418c1.285-0.535,10.493,11.242,15.525,11.777"/>
			<path style="fill:none;stroke:#1C1C1B;stroke-width:0.75;stroke-miterlimit:10;" d="M54.311,153.419
				c0,0-10.814,16.703-9.101,19.058c1.713,2.355,13.384,7.281,14.24,9.636"/>
			<path style="fill:none;stroke:#1C1C1B;stroke-width:0.75;stroke-miterlimit:10;" d="M39.322,170.658
				c1.927,1.071,1.392,3.854-1.285,3.747C35.36,174.298,37.395,169.587,39.322,170.658z"/>
		</g>
		<g>
			<path style="fill:#FFB300;" d="M167.866,264.966c0,0-3.924-11.745-0.13-12.104c3.795-0.359,8.579,7.026,8.579,7.026
				s6.563-7.764,8.53-3.954c1.966,3.81-1.485,9.571-1.485,9.571s7.61,6.835,5.253,9.088c-2.357,2.253-10.628,1.326-10.628,1.326
				s-2.842,8.8-5.771,7.317c-2.928-1.483-3.338-9.616-3.338-9.616s-9.271,2.097-9.725-1.213
				C158.697,269.097,167.866,264.966,167.866,264.966z"/>
			<path style="fill:none;stroke:#1C1C1B;stroke-width:0.75;stroke-miterlimit:10;" d="M167.866,264.966
				c0,0-9.772,4.389-8.714,7.441c1.484,4.279,9.725,1.213,9.725,1.213"/>
			<path style="fill:none;stroke:#1C1C1B;stroke-width:0.75;stroke-miterlimit:10;" d="M176.033,280.68c0,0,1.481-4.838,1.952-4.761
				c2.768,0.455,9.078,0.788,10.628-1.326c2.284-3.114-5.253-9.088-5.253-9.088s4.024-5.525,1.485-9.571"/>
			<path style="fill:none;stroke:#1C1C1B;stroke-width:0.75;stroke-miterlimit:10;" d="M177.707,263.815c0,0,2.665-5.033,5.464-6.91
				"/>
			<path style="fill:none;stroke:#1C1C1B;stroke-width:0.75;stroke-miterlimit:10;" d="M160.751,271.804
				c0,0,4.176-3.116,8.474-3.564"/>
			<path style="fill:none;stroke:#1C1C1B;stroke-width:0.75;stroke-miterlimit:10;" d="M172.343,280.89
				c0,0-1.049-7.816,0.585-10.354"/>
			<path style="fill:none;stroke:#1C1C1B;stroke-width:0.75;stroke-miterlimit:10;" d="M178.21,269.202c0,0,7.024,1.871,8.889,4.181
				"/>
			<path style="fill:none;stroke:#1C1C1B;stroke-width:0.75;stroke-miterlimit:10;" d="M167.536,254.092c0,0,4.497,7.848,5.291,9.84
				"/>
		</g>
		<g>
			<path style="fill:#FFE9D1;" d="M501.541,263.757c0,0-7.829,0.522-7.829-3.393s7.568-11.743,10.177-10.177
				c2.61,1.566,1.566,7.307,1.566,7.307s21.921-15.136,23.486,0.783c1.566,15.919-14.875,25.574-23.486,20.616
				C496.843,273.934,501.541,263.757,501.541,263.757z"/>
			<path style="fill:none;stroke:#1C1C1B;stroke-width:0.75;stroke-miterlimit:10;" d="M504.565,263.543
				c0,0,1.311,11.683,6.557,14.664"/>
			<path style="fill:none;stroke:#1C1C1B;stroke-width:0.75;stroke-miterlimit:10;" d="M507.545,258.774
				c0,0,11.087-7.749,17.763-4.769"/>
			<path style="fill:none;stroke:#1C1C1B;stroke-width:0.75;stroke-miterlimit:10;" d="M506.949,261.516
				c0,0,14.902,2.384,17.763,6.318"/>
			<path style="fill:none;stroke:#1C1C1B;stroke-width:0.75;stroke-miterlimit:10;" d="M510.525,267.477
				c0,0,4.053,4.649,6.318,6.914"/>
			<path style="fill:none;stroke:#1C1C1B;stroke-width:0.75;stroke-miterlimit:10;" d="M501.541,263.757c0,0-6.76,1.416-7.829-3.393
				c-1.069-4.809,7.833-11.97,10.177-10.177c2.344,1.792,1.566,7.307,1.566,7.307s11.389-9.21,19.734-5.634"/>
			<path style="fill:none;stroke:#1C1C1B;stroke-width:0.75;stroke-miterlimit:10;" d="M527.68,268.752
				c0.442-1.214,0.666-2.481,0.609-3.778"/>
			<path style="fill:none;stroke:#1C1C1B;stroke-width:0.75;stroke-miterlimit:10;" d="M501.465,274.63
				c0,0,3.696,6.318,10.133,5.841c4.593-0.34,11.311-3.958,14.653-8.947"/>
		</g>
		<g>
			<g>
				<path style="fill:#FF7564;" d="M688.849,170.58c0,0-20.954-15.239-16.056-16.056c4.898-0.816,20.41,6.531,20.41,6.531
					s11.157-22.042,13.879-17.961c2.721,4.082-0.272,19.321-0.272,19.321s20.682-7.62,19.049-1.361s-19.865,13.062-19.865,13.062
					s6.803,17.416,0.816,19.049c-5.987,1.633-10.885-14.695-10.885-14.695s-21.498,18.233-21.498,10.885
					C674.426,182.01,688.849,170.58,688.849,170.58z"/>
				<path style="fill:none;stroke:#1C1C1B;stroke-width:0.75;stroke-miterlimit:10;" d="M688.849,170.58
					c0,0-21.576-14.627-16.056-16.056c5.52-1.429,20.41,6.531,20.41,6.531"/>
				<path style="fill:none;stroke:#1C1C1B;stroke-width:0.75;stroke-miterlimit:10;" d="M725.858,161.055
					c0,0-1.926,5.792-19.865,13.062c0,0,7.106,17.474,0.816,19.049"/>
				<path style="fill:none;stroke:#1C1C1B;stroke-width:0.75;stroke-miterlimit:10;" d="M697.639,183.398
					c-0.155-0.464-1.715-4.926-1.715-4.926s-14.983,13.274-20.703,12.811"/>
			</g>
			<path style="fill:none;stroke:#1C1C1B;stroke-width:0.75;stroke-miterlimit:10;" d="M675.597,157.123
				c0,0,10.419,4.365,14.642,8.729"/>
			<path style="fill:none;stroke:#1C1C1B;stroke-width:0.75;stroke-miterlimit:10;" d="M702.489,168.949
				c0,0,15.346-7.18,19.711-8.025"/>
			<path style="fill:none;stroke:#1C1C1B;stroke-width:0.75;stroke-miterlimit:10;" d="M705.868,144.592
				c0,0-6.054,13.094-6.617,18.444"/>
			<path style="fill:none;stroke:#1C1C1B;stroke-width:0.75;stroke-miterlimit:10;" d="M676.724,187.956
				c0,0,13.375-11.827,17.036-13.798"/>
			<path style="fill:none;stroke:#1C1C1B;stroke-width:0.75;stroke-miterlimit:10;" d="M699.673,175.708
				c0,0,5.068,8.87,6.476,12.531"/>
		</g>
	</g>
</g>
</svg>
