<?xml version="1.0" encoding="utf-8"?>
<!-- Generator: Adobe Illustrator 27.5.0, SVG Export Plug-In . SVG Version: 6.00 Build 0)  -->
<svg version="1.1" xmlns="http://www.w3.org/2000/svg" xmlns:xlink="http://www.w3.org/1999/xlink" x="0px" y="0px"
	 viewBox="0 0 750 500" style="enable-background:new 0 0 750 500;" xml:space="preserve">
<g id="BACKGROUND">
	<rect x="0" style="fill:#FFFFFF;" width="750" height="500"/>
</g>
<g id="OBJECTS">
	<g>
		<path style="fill:#00A7BF;" d="M628.662,190.048c-31.214,17.443-145.052,132.199-269.906,99.149
			C251.067,260.692,52.553,184.382,0,163.936V500h750V156.091C716.603,161.992,653.257,176.304,628.662,190.048z"/>
		<g>
			<path style="fill:#0BC0CE;" d="M750,204.831c-48.769,2.551-75.078,43.856-87.416,72.009
				c-64.381,64.707-134.996,154.262-205.611,169.327C347.195,469.586,146.668,330.534,86.657,289.551
				C63.051,273.43,30.639,267.325,0,265.848v103.207c48.036-27.273,102.174-42.285,146.668-13.638
				c106.85,68.794,275.176,144.906,355.679,87.822c67.518-47.876,205.04-95.75,247.652-109.95v-61.178v0V204.831z"/>
			<g>
				<path style="fill:#0BC0CE;" d="M750,92.1c-55.22-34.573-106.479,58.469-108.881,74.328
					c-20.804-1.479-39.934,11.661-54.154,26.919c-14.219,15.258-25.603,33.269-41.712,46.517
					c-21.133,17.379-48.64,25.062-75.754,28.739c-34.131,4.628-69.45,3.511-102.222-7.091
					c-43.624-14.112-80.144-43.922-120.537-65.617c-40.392-21.695-90.592-34.981-131.387-14.053
					c-6.926-17.798-22.917-31.789-41.477-36.29c-18.561-4.501-39.184,0.611-53.493,13.259C14.34,151.822,7.472,145.691,0,140.424
					v74.057c45.149-0.829,96.231,10.402,152.078,42.01c220.116,124.584,437.669-3.99,512.584-60.632
					c32.086-24.26,61.82-24.38,85.337-16.595v-53.21l0-0.001V92.1z"/>
			</g>
			<path style="fill:#0BC0CE;" d="M601.522,142.403c12.676,0.576,14.405,13.829-1.729,16.133
				C583.66,160.841,588.845,141.827,601.522,142.403z"/>
			<path style="fill:#0BC0CE;" d="M45.496,230.561c14.405-9.795,25.929,11.524,9.795,19.014
				C39.158,257.065,35.479,237.372,45.496,230.561z"/>
			<path style="fill:#0BC0CE;" d="M122.13,157.96c8.067-4.61,14.981,4.033,5.762,9.219
				C118.673,172.365,114.063,162.57,122.13,157.96z"/>
			<path style="fill:#0BC0CE;" d="M693.444,196.872c12.449-1.915,14.294,12.828,1.466,14.294
				C682.083,212.632,683.915,198.339,693.444,196.872z"/>
		</g>
	</g>
	<g>
		<path style="fill:#DCC999;" d="M0,446.147V500h750v-73.371C475.9,346.857,142.711,376.606,0,446.147z"/>
		<g>
			<path style="fill:#DFA64A;" d="M701.037,435.089c0,0-2.902-0.51-1.104-3.064c1.798-2.553,5.005-0.499,3.514,2.335
				C702.533,436.094,701.037,435.089,701.037,435.089z"/>
			<path style="fill:#DFA64A;" d="M516.857,409.409c0,0-2.902-0.51-1.104-3.064c1.798-2.553,5.005-0.499,3.514,2.335
				C518.353,410.415,516.857,409.409,516.857,409.409z"/>
			<path style="fill:#DFA64A;" d="M534.715,401.46c1.553-2.019,7.146-0.932,5.747,1.243
				C539.064,404.877,533.162,403.479,534.715,401.46z"/>
			<path style="fill:#DFA64A;" d="M490.507,397.154c1.553-2.019,7.145-0.932,5.747,1.243
				C494.856,400.571,488.954,399.173,490.507,397.154z"/>
			<path style="fill:#DFA64A;" d="M518.083,459.046c1.553-2.019,7.145-0.932,5.747,1.243
				C522.432,462.463,516.529,461.065,518.083,459.046z"/>
			<path style="fill:#DFA64A;" d="M100.838,417.266c0.578-1.706,4.569-2.257,4.13-0.482
				C104.53,418.559,100.26,418.973,100.838,417.266z"/>
			<path style="fill:#DFA64A;" d="M284.211,394.024c0.7-1.543,4.058-1.248,3.464,0.391
				C287.081,396.054,283.511,395.567,284.211,394.024z"/>
			<path style="fill:#DFA64A;" d="M297.838,397.62c0.7-1.543,4.059-1.248,3.465,0.391S297.138,399.163,297.838,397.62z"/>
			<path style="fill:#DFA64A;" d="M252.225,406.326c0.7-1.543,4.058-1.248,3.464,0.391
				C255.096,408.356,251.525,407.869,252.225,406.326z"/>
			<path style="fill:#DFA64A;" d="M27.907,463.544c0.578-1.707,3.335-1.918,2.897-0.143
				C30.365,465.176,27.329,465.251,27.907,463.544z"/>
			<path style="fill:#DFA64A;" d="M11.992,448.504c0.578-1.706,3.335-1.918,2.897-0.143
				C14.45,450.136,11.414,450.211,11.992,448.504z"/>
			<path style="fill:#DFA64A;" d="M23.843,441.88c0.267-0.789,1.543-0.888,1.34-0.066C24.98,442.635,23.575,442.67,23.843,441.88z"
				/>
		</g>
	</g>
	<g>
		<path style="fill:#E1D7CD;" d="M74.76,51.714c0,0,9.412,2.172,7.482,13.757c0,0,8.206-7.964,13.032,6.034
			c0,0-10.136-5.31-19.066,0l-6.999-1.689l7.482-2.172c0,0,2.896-14.722-21.721-11.343C54.97,56.3,67.52,48.577,74.76,51.714z"/>
		<path style="fill:#E1D7CD;" d="M26.008,64.016c3.734,2.298,3.545,7.508,3.545,7.508s3.59-5.579,9.854-4.652
			c6.264,0.927,8.127,7.022,8.127,7.022s-7.404-5.024-11.38-3.721c-3.976,1.303-6.717,4.098-6.717,4.098l1.783,1.719l-6.57-0.827
			l2.394-2.41c0,0,0.427-3.865-3.212-4.84c-3.639-0.975-13.916-1.332-13.916-1.332S22.274,61.718,26.008,64.016z"/>
		<path style="fill:#E1D7CD;" d="M57.524,95.267c-2.608,0.977-5.448,6.329-5.448,6.329s1.112-5.899-0.796-8.069
			c-1.908-2.17-6.563-2.734-6.563-2.734s2.652,4.2,3.899,6.783c1.247,2.583,1.945,6.485,1.945,6.485l-1.843,0.608l3.291,1.199
			l-0.248-2.339c0,0,4.784-3.854,6.027-4.196c1.243-0.342,7.098-0.311,7.098-0.311S60.132,94.289,57.524,95.267z"/>
		<path style="fill:#E1D7CD;" d="M694.251,58.832c-4.546,2.315-4.816,8.375-4.816,8.375s-3.64-6.808-10.992-6.321
			c-7.352,0.487-10.085,7.381-10.085,7.381s9.059-5.131,13.547-3.247c4.489,1.885,7.406,5.384,7.406,5.384l-2.229,1.826l7.698-0.342
			l-2.55-3.02c0,0-0.132-4.523,4.18-5.312c4.311-0.789,16.264-0.238,16.264-0.238S698.797,56.517,694.251,58.832z"/>
		<path style="fill:#E1D7CD;" d="M722.342,99.707c1.937,1.487,2.95,6.702,2.95,6.702s0.576-5.232,2.732-6.564
			s6.204-0.614,6.204-0.614s-3.299,2.844-5.005,4.691c-1.707,1.847-3.29,4.941-3.29,4.941l1.39,0.982l-3.066,0.163l0.807-1.898
			c0,0-3.026-4.456-3.981-5.061c-0.955-0.605-5.873-2.077-5.873-2.077S720.405,98.22,722.342,99.707z"/>
	</g>
	<g>
		<path style="fill:#FFB700;" d="M353.53,282.283l3.954-10.543l-8.2-6.638c0,0-4.441-8.347-23.624-3.515
			c-19.183,4.832-24.699,29.042-24.699,29.042s-13.862-3.417-8.444-14.302c0,0-13.423,9.664-8.249,16.059
			c2.217,2.74,1.941,5.8,0.901,8.401c-2.814,7.041-3.326,14.808-0.833,21.969c3.324,9.547,9.942,20.294,23.049,22.594
			C380.728,358.217,353.53,282.283,353.53,282.283z"/>
		<g>
			<path style="fill:#FFA496;" d="M384.634,381.441c0,0-15.245,40.51-23.366,40.773c-8.121,0.263-26.02-9.824-26.02-9.824
				s-5.778,13.807-6.669,11.397c-0.891-2.41-0.189-24.061,2.516-23.747c2.705,0.313,21.706,1.497,21.706,1.497l0.422-28.656
				L384.634,381.441z"/>
			<path style="fill:none;stroke:#1C1C1B;stroke-miterlimit:10;" d="M348.02,401.36c0,0,3.658-1.291,6.885,2.797"/>
			<path style="fill:#FFA496;" d="M409.443,371.703c0,0,12.792,46.113,6.551,51.316c-6.241,5.203-26.915,11.304-26.915,11.304
				s3.938,14.441,1.753,13.089c-2.185-1.352-14.949-18.854-12.624-20.271c2.326-1.417,20.284-14.907,20.284-14.907l-19.595-37.984
				L409.443,371.703z"/>
			<path style="fill:none;stroke:#1C1C1B;stroke-miterlimit:10;" d="M395.14,414.485c0,0,1.326-1.277,3.352-2.252"/>
		</g>
		<g>
			<g>
				<g>
					<path style="fill:#FFA496;" d="M429.069,302.353c-7.835,1.304-31.958,15.949-31.958,15.949
						c-5.742,3.811,0.999,7.619,1.518,9.146c1.655,4.876,5.648,8.983,10.232,6.993c6.85-2.973,28.051-20.131,29.118-22.778
						L429.069,302.353z"/>
				</g>
				<g>
					<g>
						<g>
							<path style="fill:#FFA496;" d="M439.904,308.878c6.893-11.569,6.262-24.951,6.262-24.951l-7.982-1.704
								c0,0-6.469,11.652-10.962,19.762c-1.823,3.29-1.66,8.317,1.484,10.199l1.341,1.176
								C434.179,315.834,437.376,313.122,439.904,308.878z"/>
							<path style="fill:none;stroke:#1C1C1B;stroke-miterlimit:10;" d="M426.797,303.17c0,0,2.901,1.612,4.029,3.062"/>
							<g>
								<g>
									<g>
										<path style="fill:#FFA496;" d="M441.619,285.043l3.102-0.204c2.964-0.194,5.246-2.823,5.096-5.87l0,0
											c-0.149-3.047-2.672-5.358-5.635-5.164l-3.1,0.203c-2.963,0.194-5.245,2.823-5.096,5.87v0.002
											C436.136,282.925,438.658,285.236,441.619,285.043z"/>
										<path style="fill:#FFA496;" d="M438.857,266.473c-1.725,0.23-0.749,9.457,1.766,9.916
											C443.039,276.83,440.881,266.203,438.857,266.473z"/>
									</g>
								</g>
								<path style="fill:#FFA496;" d="M438.905,280.042c0,0-3.998,0.305-5.223-2.179c-0.592-1.201-1.427-3.749-0.647-4.053
									c2.209-0.86,3.029,1.786,3.137,2.641c0,0,2.961,0.266,3.345,0.919"/>
								<path style="fill:#FFA496;" d="M447.909,268.094c-2.152-0.749-3.574,8.699-1.577,9.213
									C448.263,277.804,450.367,268.949,447.909,268.094z"/>
								<path style="fill:#FFA496;" d="M442.71,266.928c-1.032,0.105-0.921,2.24-0.773,4.359c0.131,1.888,0.176,3.639,1.224,3.712
									C445.831,275.185,445.506,266.644,442.71,266.928z"/>
								<path style="fill:#FFA496;" d="M452.85,273.578c-1.06-1.633-6.151,3.855-5.402,4.7
									C449.047,280.078,453.723,274.922,452.85,273.578z"/>
							</g>
						</g>
					</g>
				</g>
			</g>
			<g>
				<g>
					<path style="fill:#FFA496;" d="M331.286,347.432c2.607-7.503,21.271-24.109,21.271-24.109c4.724-5.017,7.179-2.434,8.597-1.665
						c4.528,2.454,7.903,7.082,5.168,11.265c-4.085,6.251-24.572,24.255-27.361,24.86L331.286,347.432z"/>
				</g>
				<g>
					<g>
						<g>
							<path style="fill:#FFA496;" d="M336.066,359.279c-12.782,4.24-25.714,0.743-25.714,0.743l0.055-8.161
								c0,0,12.772-3.809,21.659-6.449c3.606-1.071,8.48,0.17,9.641,3.645l0.86,1.563
								C344.091,355.186,340.754,357.724,336.066,359.279z"/>
							<path style="fill:none;stroke:#1C1C1B;stroke-miterlimit:10;" d="M332.065,345.412c0,0,2.768,2.128,2.905,3.645"/>
							<g>
								<g>
									<g>
										<path style="fill:#FFA496;" d="M312.42,355.822l-0.867,2.985c-0.828,2.852-3.886,4.515-6.83,3.712l0,0
											c-2.943-0.802-4.657-3.763-3.83-6.615l0.866-2.983c0.828-2.852,3.886-4.514,6.83-3.712l0.002,0
											C311.533,350.012,313.247,352.971,312.42,355.822z"/>
										<path style="fill:#FFA496;" d="M294.88,349.126c0.596-1.635,9.396,1.305,9.303,3.86
											C304.094,355.44,294.181,351.044,294.88,349.126z"/>
									</g>
								</g>
								<path style="fill:#FFA496;" d="M308.12,352.094c0,0,1.159-3.839-1.003-5.57c-1.046-0.837-3.354-2.201-3.819-1.505
									c-1.315,1.972,1.092,3.342,1.904,3.633c0,0-0.378,2.949,0.177,3.464"/>
								<path style="fill:#FFA496;" d="M294.514,358.314c-0.268-2.263,9.264-1.617,9.336,0.444
									C303.92,360.75,294.82,360.899,294.514,358.314z"/>
								<path style="fill:#FFA496;" d="M294.495,352.986c0.325-0.985,2.385-0.417,4.423,0.183c1.815,0.535,3.516,0.955,3.361,1.995
									C301.886,357.812,293.616,355.655,294.495,352.986z"/>
								<path style="fill:#FFA496;" d="M298.806,364.32c-1.367-1.387,5.09-5.177,5.753-4.263
									C305.973,362.006,299.931,365.462,298.806,364.32z"/>
							</g>
						</g>
					</g>
				</g>
			</g>
		</g>
		<g>
			<g>
				<g>
					<g>
						<path style="fill:#FFA496;" d="M382.411,381.687c-17.386,1.59-31.256,1.07-30.385-17.518c0.3-6.397-3.815-30.592,2.956-42.552
							c0.372-0.658,3.564-3.623,5.933-4.157c1.872-0.805,23.399-5.055,36.8,1.728c1.724,0.873,3.314,1.928,4.71,3.197
							c6.812,6.191,11.625,35.615,8.892,56.035C404.316,382.664,395.949,380.449,382.411,381.687z"/>
					</g>
					<path style="fill:#FFEDD5;" d="M360.914,317.459c0,0,3.439,7.325,2.628,13.409c0,0,16.662,4.839,20.819,12.738l10.417-16.739
						l-0.005-10.601h4.867c0,0,13.791,21.091,13.385,32.448l-0.394,10.274l-61.322,5.82l-1.964-17.717
						c0,0,10.951-12.168,6.084-28.798C355.43,318.295,358.287,315.001,360.914,317.459z"/>
					<path style="fill:none;stroke:#1C1C1B;stroke-width:0.75;stroke-miterlimit:10;" d="M352.025,364.168
						c0,0,59.058-3.785,60.607-5.179c1.549-1.394,0.572-11.718-0.125-15.624c-0.698-3.906-5.441-14.649-5.441-14.649"/>
					<line style="fill:none;stroke:#1C1C1B;stroke-miterlimit:10;" x1="390.327" y1="372.426" x2="389.346" y2="374.582"/>
					<g>
						<path style="fill:#FFA496;" d="M370.136,313.854c0,0-0.734,7.91,4.007,8.95c4.741,1.039,12.98,0.798,10.978-9.934
							L370.136,313.854z"/>
						<path style="fill:#FF7564;" d="M385.122,312.871l-14.986,0.983c0,0-0.15,1.68,0.145,3.592l9.493-0.159
							c1.854-0.031,3.734-0.186,5.614-0.456C385.478,315.703,385.406,314.397,385.122,312.871z"/>
					</g>
				</g>
			</g>
			<path style="fill:#FFEDD5;" d="M352.634,371.891c0,0,39.474,11.532,59.43,2.178c1.639,1.789,4.119,11.589,1.937,16.543
				c0,0-19.459-4.757-24.261,4.447l-9.471-1.334c0,0-11.368-7.974-27.79-10.26C352.479,383.465,349.1,376.048,352.634,371.891z"/>
			<path style="fill:none;stroke:#1C1C1B;stroke-miterlimit:10;" d="M352.479,383.465c0,0,5.591,0.012,8.812,1.816"/>
		</g>
		<g>
			<g>
				<path style="fill:#FFA496;" d="M409.68,259.995c0.532,8.948,7.485,15.84,15.529,15.394c8.044-0.445,13.464-8.287,12.931-17.234
					c-0.533-8.947-6.815-15.611-14.859-15.166C415.236,243.434,409.147,251.048,409.68,259.995z"/>
				<path style="fill:#FF7564;" d="M415.668,259.282c0.314,5.275,4.414,9.339,9.157,9.076c4.743-0.263,8.333-4.752,8.019-10.027
					c-0.314-5.276-4.414-9.339-9.157-9.077C418.944,249.517,415.354,254.007,415.668,259.282z"/>
				<path style="fill:#FFA496;" d="M314.163,275.203c1.344,8.862,8.895,15.093,16.866,13.917
					c7.971-1.175,13.343-9.312,11.998-18.174c-1.345-8.861-8.896-15.092-16.866-13.916
					C318.191,258.206,312.818,266.343,314.163,275.203z"/>
				<path style="fill:#FF7564;" d="M320.749,274.114c0.793,5.225,5.245,8.899,9.945,8.206c4.699-0.693,7.866-5.491,7.074-10.715
					c-0.792-5.225-5.245-8.899-9.944-8.206C323.124,264.092,319.957,268.889,320.749,274.114z"/>
				<g>
					<path style="fill:#FFA496;" d="M362.322,217.339l20.631,0.556c27.021-3.902,36.739,17.35,39.353,39.086l0.781,6.497
						c9.755,21.565-12.542,41.404-33.853,43.931l-16.559,1.963c-21.311,2.527-41.306-7.462-43.321-34.781l-0.781-6.497
						C322.04,230.797,341.011,219.866,362.322,217.339z"/>
				</g>
				<g>
					<path style="fill:#FFA496;" d="M362.322,217.339l20.631,0.556c27.021-3.902,36.739,17.35,39.353,39.086l0.781,6.497
						c9.755,21.565-12.542,41.404-33.853,43.931l-16.559,1.963c-21.311,2.527-41.306-7.462-43.321-34.781l-0.781-6.497
						C322.04,230.797,341.011,219.866,362.322,217.339z"/>
				</g>
				<path style="fill:none;stroke:#1C1C1B;stroke-miterlimit:10;" d="M330.576,280.849c0,0,3.913,31.064,37.668,28.862"/>
				<path style="fill:#FFB700;" d="M459.413,208.87c0,0,3.887,5.615,1.728,11.229c-2.16,5.615-9.502,2.591-9.502,2.591
					s-0.899-17.14-8.206-24.618c-15.792-16.163-36.674-0.501-36.674-0.501s-5.608-16.712-20.13-19.934
					c-14.522-3.221-28.133,6.677-35.239,5.772c-7.106-0.905-43.405,12.564-46.597,43.168c-0.982,9.416,5.05,23.686,5.05,23.686
					s-2.591,12.903,4.138,18.824c0,0,1.761-5.504,5.997-6.435c0,0,5.093-2.411,9.377,11.939l5.566,2.227
					c0,0-0.853-10.253-2.357-14.856c0,0,9.743-9.542,7.214-23.293c0,0,21.163-31.529,36.763-14.908c0,0,9.281-4.991,17.799-4.396
					c8.518,0.594,11.895,12.34,16.384,14.807c4.489,2.467,6.901,7.557,9.601,15.35c2.7,7.794,2.207,19.277,2.207,19.277l7.047-3.038
					l-4.094-21.704c15.307,9.707,13.63,18.366,13.63,18.366c13.389-7.342,10.366-23.754,10.366-23.754s14.685-4.751,17.276-15.117
					C469.347,213.189,459.413,208.87,459.413,208.87z"/>
				<path style="fill:none;stroke:#1C1C1B;stroke-miterlimit:10;" d="M310.557,271.632c0,0-13.451,16.466-9.375,29.221"/>
				<path style="fill:none;stroke:#1C1C1B;stroke-miterlimit:10;" d="M466.755,223.554c0,0-15.85,30.397-36.806,7.31"/>
				<path style="fill:none;stroke:#1C1C1B;stroke-miterlimit:10;" d="M399.18,186.407c0,0-10.476-17.459-36.665-5.737
					c-16.868,7.55-20.452,13.469-27.935,15.963"/>
				<path style="fill:none;stroke:#1C1C1B;stroke-miterlimit:10;" d="M309.843,250.264c0,0-2.643,13.266,4.138,18.824
					c0,0,2.838-7.197,8.867-5.573c6.03,1.623,6.506,11.077,6.506,11.077l5.566,2.227"/>
				<path style="fill:none;stroke:#1C1C1B;stroke-miterlimit:10;" d="M444.715,212.559c0,0,3.882,15.284,15.284,9.947"/>
				<path style="fill:none;stroke:#1C1C1B;stroke-miterlimit:10;" d="M376.54,223.763c0,0-6.171-11.302-16.318-5.738
					c-10.147,5.564-21.09,22.317-28.804,27.167c-11.391,7.163-22.258-8.51-22.258-8.51s6.546,3.6,12.765,2.946"/>
				<path style="fill:none;stroke:#1C1C1B;stroke-miterlimit:10;" d="M321.218,236.504c-5.118-0.512-8.957-6.142-8.957-6.142
					s2.815,3.327,8.445,2.559"/>
				<path style="fill:none;stroke:#1C1C1B;stroke-width:0.75;stroke-miterlimit:10;" d="M380.939,268.702
					c0,0-5.755,6.621-14.273,0.665"/>
				<path style="fill:none;stroke:#1C1C1B;stroke-width:0.75;stroke-miterlimit:10;" d="M367.641,268.492
					c0,0-1.178,0.517-1.274,1.727"/>
				<path style="fill:none;stroke:#1C1C1B;stroke-width:0.75;stroke-miterlimit:10;" d="M379.835,267.776
					c0,0,1.411,0.775,1.823,2.183"/>
				<path style="fill:#1C1C1B;" d="M386.2,264.594c0.573,1.239,2.867-1.232,8.694-3.926c5.827-2.694,10.988-3.869,10.415-5.108
					c-0.573-1.239-6.254-2.685-12.081,0.009C387.401,258.263,385.627,263.355,386.2,264.594z"/>
				<path style="fill:#1C1C1B;" d="M364.586,265.343c-0.057,1.364-3.12-0.045-9.534-0.312c-6.414-0.267-11.633,0.616-11.576-0.748
					s4.757-4.868,11.171-4.601C361.06,259.949,364.643,263.979,364.586,265.343z"/>
				<g>
					<g>
						<path style="fill:#1C1C1B;" d="M401.043,240.767c-2.245-2.784-6.322-3.718-9.738-3.383c-3.881,0.38-7.402,2.405-8.906,6.118
							c-0.362,0.894,1.088,1.283,1.446,0.399c1.283-3.167,4.563-4.823,7.837-5.048c2.963-0.203,6.358,0.566,8.301,2.975
							C400.588,242.579,401.644,241.512,401.043,240.767L401.043,240.767z"/>
					</g>
				</g>
				<g>
					<g>
						<path style="fill:#1C1C1B;" d="M345.687,247.559c0.779-3.085,4.298-4.617,7.156-5.084c2.692-0.44,6.6-0.069,7.811,2.839
							c0.366,0.878,1.818,0.493,1.446-0.399c-2.415-5.802-11.195-4.697-15.272-1.514c-1.229,0.96-2.202,2.231-2.588,3.759
							C344.005,248.096,345.451,248.495,345.687,247.559L345.687,247.559z"/>
					</g>
				</g>
				<path style="fill:#FF7564;" d="M396.879,271.113c0.819,3.664,5.311,5.785,10.034,4.736c4.722-1.049,7.886-4.868,7.067-8.532
					c-0.819-3.664-5.312-5.785-10.034-4.737C399.224,263.629,396.06,267.449,396.879,271.113z"/>
				<path style="fill:#FF7564;" d="M341.754,278.897c0.42,3.731,4.657,6.323,9.465,5.79c4.807-0.534,8.364-3.991,7.945-7.721
					c-0.42-3.731-4.657-6.324-9.465-5.79C344.892,271.708,341.334,275.166,341.754,278.897z"/>
				<g>
					<g>
						<path style="fill:#1C1C1B;" d="M372.562,263.547c0.272,0.864,0.514,1.745,0.821,2.597c0.119,0.33,0.561,0.516,0.83,0.219
							c0.382-0.421,0.784-0.82,1.181-1.226c0.193-0.197,0.389-0.392,0.59-0.581c0.187-0.176,0.406-0.425,0.658-0.501
							c-0.16-0.16-0.32-0.32-0.479-0.479c-0.078,0.329-0.082,0.684-0.127,1.02c-0.044,0.329-0.084,0.658-0.133,0.985
							c-0.049,0.328-0.106,0.655-0.169,0.981c-0.068,0.35-0.21,0.738-0.133,1.093c0.035,0.159,0.193,0.281,0.348,0.299
							c0.181,0.022,0.31-0.06,0.416-0.2c0.203-0.266,0.221-0.704,0.277-1.025c0.06-0.341,0.11-0.684,0.156-1.028
							c0.044-0.329,0.084-0.658,0.104-0.989c0.02-0.335,0.068-0.7,0.027-1.033c-0.047-0.372-0.501-0.544-0.726-0.197
							c-0.141,0.218-0.435,0.372-0.644,0.52c-0.234,0.166-0.467,0.333-0.696,0.505c-0.473,0.356-0.917,0.751-1.351,1.152
							c0.277,0.073,0.553,0.146,0.83,0.219c-0.236-0.874-0.543-1.735-0.815-2.599C373.334,262.67,372.368,262.931,372.562,263.547
							L372.562,263.547z"/>
					</g>
				</g>
			</g>
		</g>
	</g>
	<g>
		<g>
			<g>
				<g>
					<g>
						<path style="fill:#FF7564;" d="M612.001,402.275c17.459,0.062,30.127,4.514,28.736-20.11
							c-0.015-0.27,1.124-30.808-6.668-42.13c-0.428-0.623-3.867-3.297-6.274-3.622c-1.935-0.638-23.752-2.988-36.508,4.941
							c-1.641,1.02-3.133,2.211-4.412,3.597c-6.244,6.763-9.268,35.011-8.839,51.154
							C585.383,399.721,598.407,402.227,612.001,402.275z"/>
					</g>
					<line style="fill:none;stroke:#1C1C1B;stroke-miterlimit:10;" x1="606.478" y1="391.124" x2="608.84" y2="390.948"/>
					<g>
						<path style="fill:#FF7564;" d="M618.294,333.629c0,0,1.424,7.816-3.209,9.266c-4.632,1.45-12.86,1.93-11.805-8.935
							L618.294,333.629z"/>
						<path style="fill:#FF5238;" d="M603.28,333.96l15.014-0.331c0,0,0.296,1.661,0.169,3.591l-9.47,0.672
							c-1.85,0.131-3.736,0.141-5.632,0.037C603.173,336.813,603.13,335.505,603.28,333.96z"/>
					</g>
				</g>
			</g>
		</g>
		<g>
			<g>
				<path style="fill:#FF7564;" d="M574.19,283.436c0.253,8.96-6.071,16.434-14.123,16.693c-8.052,0.26-14.137-7.077-14.389-16.037
					c-0.252-8.959,5.423-16.148,13.476-16.408C567.206,267.425,573.939,274.477,574.19,283.436z"/>
				<path style="fill:#FF5238;" d="M568.163,283.249c0.149,5.283-3.58,9.689-8.328,9.843c-4.747,0.153-8.717-4.005-8.866-9.287
					c-0.149-5.283,3.58-9.689,8.327-9.843C564.045,273.809,568.014,277.966,568.163,283.249z"/>
				<path style="fill:#FF7564;" d="M670.672,290.229c-0.564,8.946-7.541,15.813-15.583,15.339
					c-8.043-0.473-14.106-8.109-13.542-17.054c0.564-8.945,7.541-15.812,15.584-15.338
					C665.172,273.65,671.236,281.285,670.672,290.229z"/>
				<path style="fill:#FF5238;" d="M664.015,289.72c-0.333,5.274-4.446,9.324-9.189,9.044c-4.742-0.279-8.317-4.782-7.984-10.055
					c0.332-5.274,4.446-9.323,9.188-9.044C660.772,279.945,664.347,284.446,664.015,289.72z"/>
				<g>
					<path style="fill:#FF7564;" d="M617.635,236.8l-20.503,2.359c-27.259-1.523-35.08,20.498-35.783,42.379l-0.21,6.541
						c-7.831,22.336,16.116,40.148,37.567,40.801l16.667,0.507c21.451,0.652,40.495-11.047,40.112-38.438l0.21-6.541
						C658.939,246.682,639.085,237.452,617.635,236.8z"/>
				</g>
				<g>
					<path style="fill:#FF7564;" d="M617.635,236.8l-20.503,2.359c-27.259-1.523-35.08,20.498-35.783,42.379l-0.21,6.541
						c-7.831,22.336,16.116,40.148,37.567,40.801l16.667,0.507c21.451,0.652,40.495-11.047,40.112-38.438l0.21-6.541
						C658.939,246.682,639.085,237.452,617.635,236.8z"/>
				</g>
				<path style="fill:#1C1C1B;" d="M663.781,278.236c0,0-5.285-1.956-8.297,12.713l-5.35,2.706c0,0-1.365-15.725-0.268-20.441
					c0,0-10.54-8.653-9.224-22.573c0,0-4.851-11.317-10.833-10.148c-5.982,1.169-18.732,5.834-18.732,5.834l3.025-8.354
					c0,0-5.504,1.231-10.069,6.47c0,0-9.682-4.16-18.115-2.822c-8.433,1.338-10.77,13.334-15.026,16.184
					c-4.256,2.85-6.213,8.132-8.221,16.132c-2.008,8-0.512,19.396-0.512,19.396l-7.286-2.41l2.179-21.979
					c0,0-9.004-1.139-10.737,12.241c0,0-3.974-6.831-1.967-14.831c0,0-9.248-3.627-9.461-9.485
					c-0.213-5.858,2.396-14.752,2.396-14.752s-8.815-6.972,0.484-14.999c9.299-8.027,29.218-11.765,29.218-11.765
					s8.777-11.496,22.961-15.976c14.184-4.48,28.609,4.19,35.609,2.667c6.999-1.523,23.264-3.304,27.778,3.111
					c4.514,6.415,5.373,14.786,5.373,14.786s19.434,11.262,20.648,20.651c1.214,9.389-6.562,24.415-6.562,24.415
					s3.71,12.627-2.475,19.114C670.318,284.121,668.082,278.793,663.781,278.236z"/>
				<path style="fill:none;stroke:#1C1C1B;stroke-width:0.75;stroke-miterlimit:10;" d="M603.583,289.594
					c0,0,6.312,6.092,14.277-0.586"/>
				<path style="fill:none;stroke:#1C1C1B;stroke-width:0.75;stroke-miterlimit:10;" d="M616.811,288.222
					c0,0,1.219,0.412,1.42,1.609"/>
				<path style="fill:none;stroke:#1C1C1B;stroke-width:0.75;stroke-miterlimit:10;" d="M604.602,288.575
					c0,0-1.337,0.896-1.625,2.334"/>
				<g>
					<path style="fill:#FFEDD5;" d="M629.128,293.012L629.128,293.012c5.088,0.669,9.762-2.996,10.44-8.187l0.651-4.975
						c0.679-5.19-2.895-9.94-7.982-10.609l0,0c-5.087-0.669-9.761,2.996-10.44,8.186l-0.65,4.976
						C620.467,287.593,624.041,292.342,629.128,293.012"/>
					<path style="fill:#1C1C1B;" d="M621.798,277.427c0.367-2.808,1.91-5.163,4.049-6.633c0.762-0.173,1.549-0.222,2.345-0.117
						c4.488,0.59,7.528,5.648,6.79,11.296c-0.739,5.648-4.977,9.749-9.465,9.158c-0.408-0.054-0.798-0.156-1.18-0.28
						c-2.32-2.007-3.623-5.135-3.19-8.448L621.798,277.427z"/>
				</g>
				<path style="fill:#1C1C1B;" d="M597.982,285.963c-0.462,1.285-2.964-0.977-9.004-3.15c-6.04-2.174-11.284-2.893-10.822-4.178
					c0.462-1.285,5.996-3.222,12.036-1.048C596.232,279.761,598.445,284.678,597.982,285.963z"/>
				<g>
					<g>
						<path style="fill:#1C1C1B;" d="M586.999,261.267c1.706-2.541,5.14-3.573,8.059-3.586c3.341-0.015,6.609,1.385,8.18,4.459
							c0.44,0.86,1.734,0.102,1.295-0.757c-1.805-3.53-5.634-5.219-9.476-5.202c-3.485,0.016-7.34,1.329-9.354,4.329
							C585.164,261.313,586.463,262.065,586.999,261.267L586.999,261.267z"/>
					</g>
				</g>
				<g>
					<g>
						<path style="fill:#1C1C1B;" d="M640.128,268.182c-0.585-2.861-3.156-4.771-5.723-5.8c-2.657-1.065-5.918-1.439-8.631-0.356
							c-1.433,0.572-2.646,1.573-3.311,2.985c-0.409,0.868,0.884,1.631,1.295,0.757c1.378-2.926,5.144-3.211,7.947-2.633
							c2.875,0.593,6.331,2.29,6.976,5.446C638.875,269.526,640.321,269.126,640.128,268.182L640.128,268.182z"/>
					</g>
				</g>
				<path style="fill:#FF5238;" d="M588.699,294.472c-0.495,3.721-4.784,6.227-9.581,5.596c-4.795-0.631-8.282-4.16-7.786-7.881
					c0.496-3.722,4.785-6.228,9.581-5.596C585.708,287.221,589.195,290.75,588.699,294.472z"/>
				<path style="fill:#FF5238;" d="M644.03,302.255c-0.091,3.753-4.086,6.706-8.922,6.595c-4.836-0.111-8.682-3.244-8.59-6.997
					c0.092-3.754,4.086-6.707,8.922-6.596C640.276,295.369,644.122,298.501,644.03,302.255z"/>
				<g>
					<g>
						<path style="fill:#1C1C1B;" d="M610.502,283.504c-0.195,0.885-0.424,1.769-0.584,2.661c0.243-0.099,0.486-0.198,0.729-0.297
							c-0.455-0.352-0.918-0.699-1.408-1.002c-0.239-0.148-0.482-0.292-0.725-0.433c-0.244-0.142-0.537-0.277-0.712-0.501
							c-0.222-0.283-0.655-0.03-0.665,0.276c-0.011,0.347,0.071,0.716,0.121,1.06c0.05,0.344,0.118,0.683,0.194,1.022
							c0.072,0.325,0.151,0.648,0.237,0.969c0.094,0.352,0.16,0.773,0.413,1.048c0.272,0.296,0.672,0.034,0.714-0.296
							c0.04-0.321-0.145-0.694-0.232-0.999c-0.091-0.32-0.176-0.641-0.253-0.964c-0.078-0.323-0.146-0.648-0.219-0.972
							c-0.072-0.319-0.107-0.661-0.208-0.971c-0.16,0.16-0.32,0.32-0.479,0.479c0.257,0.053,0.498,0.262,0.701,0.421
							c0.22,0.173,0.435,0.352,0.647,0.534c0.428,0.367,0.86,0.726,1.274,1.109c0.269,0.249,0.732,0.154,0.83-0.219
							c0.231-0.876,0.395-1.774,0.591-2.659c0.058-0.263-0.079-0.541-0.349-0.615C610.867,283.086,610.561,283.239,610.502,283.504
							L610.502,283.504z"/>
					</g>
				</g>
			</g>
		</g>
		<g>
			<g>
				<g>
					<path style="fill:#FF7564;" d="M551.468,336.009c7.787-1.565,31.571,6.079,31.571,6.079c6.721,1.521,5.743,4.948,5.801,6.56
						c0.186,5.146-2.087,10.404-7.079,10.173c-7.459-0.344-33.374-8.848-35.312-10.943L551.468,336.009z"/>
					<path style="fill:none;stroke:#1C1C1B;stroke-miterlimit:10;" d="M578.851,352.801c0,0,2.66,3.36,2.66,7.98"/>
				</g>
				<g>
					<g>
						<g>
							<path style="fill:#FF7564;" d="M543.351,344.826c-8.097-10.761-8.911-24.132-8.911-24.132l7.752-2.553
								c0,0,7.686,10.888,13.024,18.468c2.166,3.075,2.545,8.091-0.378,10.3l-1.207,1.314
								C549.792,351.125,546.321,348.772,543.351,344.826z"/>
							<g>
								<g>
									<g>
										<path style="fill:#FF7564;" d="M539.081,321.313l-3.106,0.132c-2.967,0.126-5.519-2.242-5.698-5.288l0,0
											c-0.179-3.045,2.08-5.615,5.046-5.741l3.104-0.132c2.967-0.126,5.518,2.242,5.698,5.288l0,0.002
											C544.305,318.618,542.047,321.187,539.081,321.313z"/>
										<path style="fill:#FF7564;" d="M539.829,302.554c1.74,0.043,1.762,9.322-0.689,10.049
											C536.786,313.301,537.789,302.503,539.829,302.554z"/>
									</g>
								</g>
								<path style="fill:#FF7564;" d="M541.242,316.049c0,0,4.008-0.127,4.958-2.728c0.46-1.258,1.016-3.881,0.208-4.099
									c-2.289-0.617-2.819,2.101-2.835,2.964c0,0-2.915,0.583-3.227,1.273"/>
								<path style="fill:none;stroke:#1C1C1B;stroke-width:0.75;stroke-miterlimit:10;" d="M543.573,312.185
									c0,0-3.037,1.098-3.848,3.397"/>
								<path style="fill:#FF7564;" d="M531.005,305.139c2.059-0.976,4.489,8.264,2.559,8.99
									C531.698,314.831,528.653,306.254,531.005,305.139z"/>
								<path style="fill:#FF7564;" d="M536.048,303.42c1.037-0.007,1.156,2.128,1.238,4.25c0.073,1.891,0.216,3.637-0.818,3.822
									C533.833,311.965,533.238,303.439,536.048,303.42z"/>
								<path style="fill:none;stroke:#1C1C1B;stroke-width:0.75;stroke-miterlimit:10;" d="M530.961,312.854
									c0,0,5.022-5.022,10.863-1.332"/>
								<path style="fill:#FF7564;" d="M526.682,311.123c0.878-1.738,6.53,3.171,5.876,4.092
									C531.163,317.177,525.959,312.553,526.682,311.123z"/>
							</g>
						</g>
					</g>
				</g>
				<path style="fill:none;stroke:#1C1C1B;stroke-miterlimit:10;" d="M555.689,335.768c0,0-1.478,3.875-3.126,5.402"/>
			</g>
			<g>
				<g>
					<path style="fill:#FF7564;" d="M660.705,328.667c-7.936-0.333-30.239,10.921-30.239,10.921
						c-6.402,2.549-4.902,5.782-4.708,7.383c0.618,5.112,3.681,9.952,8.577,8.947c7.315-1.502,31.589-13.937,33.177-16.309
						L660.705,328.667z"/>
				</g>
				<path style="fill:none;stroke:#1C1C1B;stroke-miterlimit:10;" d="M643.39,347.481c0,0-6.16,3.36-5.88,9.94"/>
				<g>
					<g>
						<g>
							<path style="fill:#FF7564;" d="M669.967,337.466c8.641-10.329,10.142-23.641,10.142-23.641l-7.61-2.949
								c0,0-8.236,10.478-13.958,17.772c-2.322,2.96-2.959,7.949-0.153,10.306l1.137,1.374
								C663.21,343.425,666.797,341.254,669.967,337.466z"/>
							<path style="fill:none;stroke:#1C1C1B;stroke-miterlimit:10;" d="M658.54,328.648c0,0,2.769,3.713,2.769,4.833"/>
							<g>
								<g>
									<g>
										<path style="fill:#FF7564;" d="M675.442,314.204l3.095,0.291c2.957,0.278,5.627-1.955,5.963-4.987l0,0
											c0.336-3.032-1.788-5.714-4.744-5.993l-3.093-0.291c-2.957-0.278-5.627,1.955-5.963,4.987l0,0.002
											C670.365,311.244,672.487,313.926,675.442,314.204z"/>
										<path style="fill:#FF7564;" d="M675.662,295.431c-1.74-0.046-2.24,9.218,0.171,10.071
											C678.147,306.321,677.702,295.486,675.662,295.431z"/>
									</g>
								</g>
								<path style="fill:#FF7564;" d="M673.556,308.836c0,0-3.996-0.333-4.811-2.98c-0.394-1.28-0.814-3.928,0.004-4.104
									c2.318-0.499,2.707,2.243,2.679,3.105c0,0,2.881,0.733,3.157,1.438"/>
								<path style="fill:#FF7564;" d="M684.341,298.468c-2.006-1.081-4.909,8.022-3.018,8.846
									C683.15,308.111,686.633,299.703,684.341,298.468z"/>
								<path style="fill:#FF7564;" d="M679.393,296.492c-1.036-0.06-1.264,2.065-1.455,4.181c-0.17,1.885-0.404,3.621,0.62,3.859
									C681.165,305.139,682.198,296.655,679.393,296.492z"/>
								<path style="fill:#FF7564;" d="M688.35,304.667c-0.788-1.781-6.685,2.831-6.079,3.783
									C683.563,310.482,688.998,306.133,688.35,304.667z"/>
							</g>
						</g>
					</g>
				</g>
			</g>
		</g>
		<g>
			<path style="fill:#FF7564;" d="M578.92,391.873l-9.255,65.908c0,0-7.889-2.072-10.083,0.871
				c-1.705,2.287,9.294,11.11,13.955,10.836c2.476-0.146,39.057-67.717,39.057-67.717L578.92,391.873z"/>
			<path style="fill:none;stroke:#1C1C1B;stroke-miterlimit:10;" d="M562.782,459.451c0,0-2.541,0.102-2.846,1.525"/>
			<path style="fill:#FF5238;" d="M611.649,403.513l-34.681,2.268l-3.328,23.701c5.067,2.024,12.825,4.973,19.836,7.019
				C601.301,422.521,609.022,408.348,611.649,403.513z"/>
			<path style="fill:#FF7564;" d="M608.515,400.201c0,0,15.115,32.389,23.156,31.22c8.041-1.169,33.942-19.987,33.942-19.987
				s3.41,6.703,5.597,8.051c0.267,0.165,4.009-0.41,3.436-3.436c-1.333-7.047-5.293-18.051-7.117-17.503
				c-2.608,0.784-24.945,10.692-24.945,10.692l-2.182-18.557L608.515,400.201z"/>
			<path style="fill:none;stroke:#1C1C1B;stroke-width:0.75;stroke-miterlimit:10;" d="M671.665,417.005c0,0,0,1.375,0.941,2.026"/>
			<path style="fill:#FF5238;" d="M647.988,406.853c-3.153,1.387-5.404,2.385-5.404,2.385l-0.904-7.69l-31.503,2.06
				c4.141,8.277,15.071,28.746,21.495,27.812c2.205-0.321,5.757-1.973,9.747-4.197C643.424,421.115,646.181,412.515,647.988,406.853
				z"/>
			<g>
				<path style="fill:#FFB700;" d="M578.259,395.12c0,0,58.287-1.554,64.082-6.107l1.919,10.941l3.118,2.2
					c0,0-11.573,27.637-15.897,30.167c0,0-5.111,0.337-7.452-1.113c-2.341-1.45-12.495-18.03-12.495-18.03s-5.007,16.9-7.394,19.624
					c0,0-25.188-2.51-31.635-7.859l2.627-23.801c0,0-2.102-7.56,2.84-10.453L578.259,395.12z"/>
				<path style="fill:none;stroke:#1C1C1B;stroke-miterlimit:10;" d="M575.982,394.837c0,0,18.654,0.44,33.172-1.232"/>
				<path style="fill:none;stroke:#1C1C1B;stroke-miterlimit:10;" d="M574.152,406.985c0,0,4.753-0.183,6.764-9.689"/>
				<path style="fill:none;stroke:#1C1C1B;stroke-miterlimit:10;" d="M632.288,395.285c0,0,6.764,5.119,11.7,1.097"/>
				<path style="fill:none;stroke:#1C1C1B;stroke-miterlimit:10;" d="M600.295,411.007c0,0,10.969,1.645,19.013-4.936"/>
				<line style="fill:none;stroke:#1C1C1B;stroke-miterlimit:10;" x1="616.931" y1="421.61" x2="610.167" y2="410.824"/>
				<path style="fill:#FFEDD5;" d="M644.484,400.112c-3.813,10.403-12.986,26.056-16.646,32.131
					c1.909,0.191,3.642,0.079,3.642,0.079c4.324-2.531,15.898-30.167,15.898-30.167L644.484,400.112z"/>
				<path style="fill:#FFEDD5;" d="M605.568,430.288c-5.312-0.848-23.296-3.914-32.778-7.931l-0.286,2.586
					c6.448,5.349,31.635,7.859,31.635,7.859C604.551,432.334,605.04,431.439,605.568,430.288z"/>
				<g>
					<g>
						<path style="fill:none;stroke:#FFEDD5;stroke-miterlimit:10;" d="M610.051,396.723c0,0,0.5,7.589,5.52,8.138"/>
						<line style="fill:none;stroke:#FFEDD5;stroke-miterlimit:10;" x1="614.487" y1="403.373" x2="613.165" y2="405.169"/>
						<line style="fill:none;stroke:#FFEDD5;stroke-miterlimit:10;" x1="612.475" y1="404.385" x2="613.764" y2="402.641"/>
					</g>
					<g>
						<path style="fill:none;stroke:#FFEDD5;stroke-miterlimit:10;" d="M605.257,396.387c0.321,0.419,1.589,8.543-3.803,11.244"/>
						<path style="fill:none;stroke:#FFEDD5;stroke-miterlimit:10;" d="M601.953,405.907c0,0,1.087,1.491,1.282,2.021"/>
						<line style="fill:none;stroke:#FFEDD5;stroke-miterlimit:10;" x1="602.871" y1="405.304" x2="604.127" y2="406.944"/>
					</g>
				</g>
			</g>
		</g>
	</g>
	<g>
		<g>
			<g>
				<g>
					<path style="fill:#FF7564;" d="M236.676,339.791c-7.911-0.712-30.726,9.465-30.726,9.465c-6.517,2.241-5.172,5.541-5.055,7.15
						c0.373,5.136,3.202,10.117,8.14,9.346c7.378-1.151,32.218-12.413,33.918-14.706L236.676,339.791z"/>
				</g>
				<g>
					<g>
						<g>
							<path style="fill:#FF7564;" d="M243.671,350.503c10.942-7.85,15.713-20.368,15.713-20.368l-6.635-4.752
								c0,0-10.587,8.095-17.947,13.733c-2.986,2.288-4.846,6.961-2.717,9.942l0.759,1.614
								C235.643,354.59,239.657,353.382,243.671,350.503z"/>
							<g>
								<g>
									<g>
										<path style="fill:#FF7564;" d="M254.771,329.339l2.925,1.053c2.794,1.006,5.937-0.491,7.017-3.344l0,0
											c1.081-2.852-0.307-5.98-3.101-6.986l-2.923-1.053c-2.794-1.007-5.936,0.491-7.017,3.344l-0.001,0.002
											C250.591,325.207,251.978,328.333,254.771,329.339z"/>
										<path style="fill:#FF7564;" d="M259.661,311.214c-1.673-0.478-4.466,8.369-2.344,9.796
											C259.354,322.379,261.624,311.775,259.661,311.214z"/>
									</g>
								</g>
								<path style="fill:#FF7564;" d="M254.282,323.67c0,0-3.787-1.318-3.917-4.085c-0.063-1.338,0.19-4.008,1.027-3.974
									c2.369,0.095,2.062,2.847,1.82,3.675c0,0,2.608,1.428,2.699,2.179"/>
								<path style="fill:#FF7564;" d="M267.31,316.317c-1.673-1.547-6.753,6.545-5.128,7.815
									C263.753,325.359,269.222,318.084,267.31,316.317z"/>
								<path style="fill:#FF7564;" d="M263.011,313.17c-0.988-0.316-1.739,1.685-2.451,3.687c-0.634,1.783-1.293,3.406-0.362,3.892
									C262.572,321.986,265.687,314.027,263.011,313.17z"/>
								<path style="fill:#FF7564;" d="M269.648,323.319c-0.319-1.921-7.18,1.076-6.83,2.149
									C263.563,327.758,269.91,324.901,269.648,323.319z"/>
							</g>
						</g>
					</g>
				</g>
				<path style="fill:none;stroke:#1C1C1B;stroke-miterlimit:10;" d="M233.031,339.674c0,0,1.061,4.009,2.538,5.702"/>
			</g>
			<g>
				<g>
					<path style="fill:#FF7564;" d="M127.261,344.055c7.778-1.608,31.604,5.904,31.604,5.904c6.729,1.484,5.77,4.916,5.837,6.528
						c0.214,5.145-2.029,10.415-7.023,10.212c-7.461-0.303-33.422-8.663-35.372-10.748L127.261,344.055z"/>
				</g>
				<g>
					<g>
						<g>
							<path style="fill:#FF7564;" d="M119.539,354.232c-10.193-8.801-13.82-21.697-13.82-21.697l7.035-4.137
								c0,0,9.817,9.013,16.641,15.29c2.768,2.547,4.201,7.368,1.813,10.146l-0.901,1.539
								C127.167,359.024,123.277,357.46,119.539,354.232z"/>
							<path style="fill:none;stroke:#1C1C1B;stroke-miterlimit:10;" d="M126.721,346.917c0,0,0.374-2.329,2.673-3.229"/>
							<g>
								<g>
									<g>
										<path style="fill:#FF7564;" d="M110.385,332.157l-3.007,0.786c-2.873,0.751-5.869-1.022-6.689-3.961l0,0
											c-0.82-2.938,0.843-5.928,3.716-6.679l3.006-0.786c2.873-0.751,5.868,1.022,6.689,3.961l0.001,0.002
											C114.919,328.417,113.257,331.405,110.385,332.157z"/>
										<path style="fill:#FF7564;" d="M107.143,313.665c1.709-0.326,3.697,8.737,1.455,9.967
											C106.445,324.813,105.137,314.048,107.143,313.665z"/>
									</g>
								</g>
								<path style="fill:#FF7564;" d="M111.381,326.555c0,0,3.89-0.973,4.268-3.716c0.183-1.327,0.171-4.008-0.665-4.05
									c-2.368-0.118-2.31,2.651-2.143,3.497c0,0-2.726,1.188-2.884,1.928"/>
								<path style="fill:#FF7564;" d="M99.066,318.061c1.806-1.39,6.138,7.125,4.405,8.244
									C101.796,327.386,97.003,319.649,99.066,318.061z"/>
								<path style="fill:#FF7564;" d="M103.631,315.313c1.012-0.226,1.581,1.835,2.11,3.892c0.472,1.833,0.982,3.508,0.01,3.908
									C103.276,324.133,100.888,315.926,103.631,315.313z"/>
								<path style="fill:#FF7564;" d="M96.109,324.825c0.49-1.884,7.054,1.716,6.609,2.754
									C101.77,329.792,95.705,326.376,96.109,324.825z"/>
							</g>
						</g>
					</g>
				</g>
			</g>
		</g>
		<g>
			<g>
				<g>
					<g>
						<g>
							<path style="fill:#FF7564;" d="M187.192,408.85c-17.22,2.876-31.091,3.387-31.602-15.215
								c-0.176-6.402-6.076-30.224-0.21-42.654c0.322-0.684,3.285-3.878,5.608-4.586c1.807-0.941,22.96-6.777,36.827-1.009
								c1.784,0.742,3.448,1.677,4.934,2.839c7.253,5.668,14.236,34.654,13.027,55.22
								C209.11,408.199,200.601,406.611,187.192,408.85z"/>
						</g>
						<line style="fill:none;stroke:#1C1C1B;stroke-miterlimit:10;" x1="194.425" y1="398.516" x2="192.066" y2="398.724"/>
						<g>
							<path style="fill:#FF7564;" d="M169.917,342.116c0,0-0.145,7.943,4.661,8.628c4.805,0.685,13.003-0.168,10.211-10.721
								L169.917,342.116z"/>
							<path style="fill:#FF5238;" d="M184.788,340.023l-14.872,2.093c0,0-0.025,1.687,0.412,3.571l9.455-0.863
								c1.846-0.169,3.71-0.463,5.564-0.871C185.353,342.821,185.185,341.523,184.788,340.023z"/>
						</g>
					</g>
				</g>
			</g>
			<g>
				<g>
					<path style="fill:#FF7564;" d="M205.354,285.47c1.195,8.883,8.64,15.24,16.629,14.198c7.989-1.041,12.811-9.263,11.616-18.146
						c-1.196-8.883-7.955-15.062-15.944-14.021C209.665,268.543,204.158,276.588,205.354,285.47z"/>
					<path style="fill:#FF5238;" d="M211.272,284.314c0.705,5.238,5.095,8.986,9.805,8.372c4.71-0.614,7.958-5.358,7.253-10.595
						c-0.705-5.238-5.095-8.986-9.805-8.372C213.815,274.334,210.567,279.077,211.272,284.314z"/>
					<path style="fill:#FF7564;" d="M111.229,307.727c1.998,8.738,9.991,14.391,17.852,12.627
						c7.862-1.764,12.615-10.277,10.616-19.014c-1.999-8.737-9.991-14.39-17.852-12.626
						C113.984,290.477,109.23,298.99,111.229,307.727z"/>
					<path style="fill:#FF5238;" d="M117.716,306.151c1.178,5.152,5.891,8.485,10.526,7.445c4.635-1.04,7.437-6.06,6.259-11.211
						c-1.178-5.151-5.891-8.485-10.526-7.445C119.341,295.981,116.538,300.999,117.716,306.151z"/>
					<g>
						<path style="fill:#FF7564;" d="M154.96,246.447l20.615-0.977c26.657-5.897,37.926,14.576,42.146,36.057l1.262,6.421
							c11.329,20.782-9.434,42.221-30.499,46.323l-16.367,3.187c-21.065,4.102-41.746-4.376-45.784-31.469l-1.261-6.422
							C115.788,262.858,133.896,250.548,154.96,246.447z"/>
					</g>
					<g>
						<path style="fill:#FF7564;" d="M154.96,246.447l20.615-0.977c26.657-5.897,37.926,14.576,42.146,36.057l1.262,6.421
							c11.329,20.782-9.434,42.221-30.499,46.323l-16.367,3.187c-21.065,4.102-41.746-4.376-45.784-31.469l-1.261-6.422
							C115.788,262.858,133.896,250.548,154.96,246.447z"/>
					</g>
					<path style="fill:#1C1C1B;" d="M229.14,236.506c0,0,2.67-26.323-14.54-33.421c0,0,0.646,10.674-2.578,12.171
						c0,0-1.343-16.817-19.582-13.051l3.248,8.682c0,0-7.347-9.914-22.109-5.41l7.141,6.256
						c-0.996,0.052-45.022-5.277-69.091,22.309l-6.979-11.652c0,0-5.878,8.02-1.208,14.278c0,0-9.304,2.753-11.768,10.951
						l14.774,0.586c0,0-17.619,35.488,3.39,52.801c0.241,0.22,0.491,0.434,0.756,0.634c0,0,1.348-5.619,5.502-6.862
						c0,0,4.901-2.782,10.238,11.21l5.716,1.808c0,0-1.187-15.739-3.03-20.217c0,0,9.008-10.239,5.465-23.764
						c0,0,2.963-11.951,9.055-11.762c2.217,0.069,5.394,0.451,8.539,0.908c3.429,6.34,10.625,12.8,25.478,7.498l-14.589-5.668
						c0,0,19.337-7.315,31.572-4.178c0.553,0.142,1.082,0.213,1.599,0.252c3.211,3.402,5.708,7.576,8.338,8.777
						c4.66,2.127,7.443,7.024,10.714,14.596c3.271,7.572,3.632,19.06,3.632,19.06l6.802-3.553l-5.694-21.34
						c0,0,8.703-2.576,12.57,10.35c0,0,1.47-3.88,1.043-8.894C234.812,263.764,237.96,247.561,229.14,236.506z"/>
					<g>
						<path style="fill:#FFEDD5;" d="M153.706,302.951L153.706,302.951c-5.102,0.55-9.689-3.223-10.247-8.428l-0.535-4.989
							c-0.558-5.204,3.126-9.87,8.227-10.421l0,0c5.101-0.55,9.689,3.223,10.247,8.427l0.534,4.99
							C162.49,297.736,158.807,302.401,153.706,302.951"/>
						<path style="fill:#1C1C1B;" d="M161.397,287.541c-0.301-2.816-1.789-5.206-3.893-6.726c-0.758-0.19-1.543-0.258-2.342-0.172
							c-4.501,0.486-7.658,5.471-7.051,11.135c0.607,5.664,4.748,9.862,9.249,9.376c0.409-0.044,0.801-0.137,1.186-0.253
							c2.366-1.952,3.742-5.05,3.386-8.371L161.397,287.541z"/>
					</g>
					<g>
						<path style="fill:#FFEDD5;" d="M191.289,295.527L191.289,295.527c-5.082,0.712-9.787-2.914-10.509-8.098l-0.693-4.97
							c-0.723-5.184,2.811-9.964,7.892-10.676l0,0c5.081-0.712,9.786,2.914,10.509,8.098l0.692,4.97
							C199.904,290.035,196.37,294.815,191.289,295.527"/>
						<path style="fill:#1C1C1B;" d="M198.487,279.881c-0.39-2.805-1.953-5.146-4.105-6.599c-0.763-0.166-1.55-0.209-2.346-0.098
							c-4.483,0.628-7.48,5.711-6.694,11.353c0.787,5.642,5.059,9.706,9.542,9.078c0.407-0.057,0.797-0.162,1.178-0.29
							c2.302-2.026,3.58-5.166,3.118-8.475L198.487,279.881z"/>
					</g>
					<g>
						<path style="fill:#1C1C1B;" d="M183.013,299.459c-7.042-0.148-6.949,5.155-9.812,4.839c-2.863-0.316-6.416-4.477-10.106-1.173
							c-3.69,3.303-1.1,18.549,16.922,13.811C192.628,313.62,190.054,299.607,183.013,299.459z"/>
						<path style="fill:#1C1C1B;" d="M183.013,299.459c-7.042-0.148-6.949,5.155-9.812,4.839c-2.863-0.316-6.416-4.477-10.106-1.173
							c-3.69,3.303-1.1,18.549,16.922,13.811C192.628,313.62,190.054,299.607,183.013,299.459z"/>
						<path style="fill:#FF5238;" d="M161.733,308.551c1.865-0.693,3.901-1.126,6.057-1.212c7.013-0.281,13.199,3.061,15.996,8.054
							c-1.067,0.63-2.312,1.16-3.768,1.543C167.472,320.234,162.409,313.851,161.733,308.551z"/>
						<path style="fill:none;stroke:#1C1C1B;stroke-width:1.5;stroke-miterlimit:10;" d="M183.013,299.459
							c-7.042-0.148-6.949,5.155-9.812,4.839c-2.863-0.316-6.416-4.477-10.106-1.173c-3.69,3.303-1.1,18.549,16.922,13.811
							C192.628,313.62,190.054,299.607,183.013,299.459z"/>
					</g>
					<g>
						<g>
							<path style="fill:#1C1C1B;" d="M196.907,266.661c-2.473-2.639-6.539-3.242-9.96-2.695c-3.812,0.609-7.247,2.94-8.458,6.714
								c-0.295,0.921,1.152,1.316,1.446,0.399c1.052-3.28,4.133-5.16,7.41-5.667c2.906-0.449,6.407,0.074,8.501,2.309
								C196.508,268.428,197.567,267.366,196.907,266.661L196.907,266.661z"/>
						</g>
					</g>
					<g>
						<g>
							<path style="fill:#1C1C1B;" d="M143.49,275.99c0.868-3.028,4.455-4.475,7.302-4.831c2.734-0.342,6.601,0.14,7.728,3.111
								c0.339,0.894,1.79,0.506,1.446-0.399c-2.216-5.841-11.08-5.046-15.216-1.975c-1.263,0.938-2.269,2.165-2.707,3.695
								C141.778,276.521,143.225,276.918,143.49,275.99L143.49,275.99z"/>
						</g>
					</g>
					<path style="fill:#FF5238;" d="M195.215,303.403c1.295,3.524,6.028,5.033,10.571,3.37c4.542-1.663,7.174-5.867,5.878-9.39
						c-1.296-3.524-6.029-5.034-10.571-3.371C196.551,295.675,193.919,299.879,195.215,303.403z"/>
					<path style="fill:#FF5238;" d="M137.633,312.637c0.004,3.754,3.928,6.8,8.765,6.803c4.837,0.002,8.755-3.039,8.751-6.793
						c-0.004-3.755-3.928-6.801-8.766-6.803C141.547,305.84,137.628,308.882,137.633,312.637z"/>
					<g>
						<g>
							<path style="fill:#1C1C1B;" d="M169.822,291.768c0.351,0.881,0.673,1.783,1.062,2.648c0.122,0.271,0.594,0.339,0.78,0.1
								c0.351-0.45,0.725-0.88,1.092-1.317c0.179-0.213,0.362-0.423,0.55-0.628c0.098-0.107,0.196-0.214,0.302-0.312
								c0.09-0.083,0.189-0.199,0.303-0.242c-0.16-0.16-0.32-0.32-0.479-0.479c-0.056,0.335-0.04,0.684-0.059,1.023
								c-0.02,0.344-0.036,0.689-0.061,1.033c-0.024,0.331-0.055,0.662-0.093,0.992c-0.039,0.337-0.16,0.73-0.061,1.061
								c0.106,0.356,0.568,0.398,0.764,0.1c0.201-0.305,0.185-0.768,0.22-1.122c0.033-0.33,0.059-0.661,0.078-0.992
								c0.019-0.331,0.032-0.663,0.027-0.995c-0.006-0.36,0.01-0.746-0.063-1.099c-0.069-0.329-0.557-0.378-0.712-0.093
								c-0.129,0.235-0.401,0.415-0.606,0.584c-0.225,0.185-0.448,0.371-0.668,0.562c-0.437,0.38-0.841,0.801-1.237,1.224
								c0.277,0.073,0.553,0.146,0.83,0.219c-0.298-0.855-0.67-1.69-1.005-2.531c-0.1-0.251-0.334-0.426-0.615-0.349
								C169.933,291.219,169.721,291.516,169.822,291.768L169.822,291.768z"/>
						</g>
					</g>
				</g>
			</g>
		</g>
		<g>
			<path style="fill:#FF7564;" d="M188.183,403.973c0,0-11.457,40.148-19.536,41.013c-8.08,0.865-28.975-18.129-28.975-18.129
				s-5.041,9.27-7.524,8.607c-4.164-1.113,1.221-20.702,3.942-20.59c2.721,0.112,22.579,10.121,22.579,10.121l-1.941-24.148
				L188.183,403.973z"/>
			<path style="fill:none;stroke:#1C1C1B;stroke-miterlimit:10;" d="M157.747,424.703c0,0,2.044,1.003,2.657,2.323"/>
			<path style="fill:#FF7564;" d="M216.252,405.428c0,0-0.214,41.75-7.762,44.76c-7.548,3.01-33.766-5.431-33.766-5.431
				s-2.321,9.071-4.886,9.221c-5.238,0.307-3.465-23.391-0.815-24.016c2.651-0.626,23.845,5.637,23.845,5.637l-7.75-24.706
				L216.252,405.428z"/>
			<path style="fill:none;stroke:#1C1C1B;stroke-miterlimit:10;" d="M192.869,435.599c0,0,0.823,1.035,1.893,1.76"/>
			<path style="fill:none;stroke:#1C1C1B;stroke-width:0.75;stroke-miterlimit:10;" d="M179.417,427.792
				c0,0-3.449,16.5-10.77,17.194c-7.321,0.694-15.636-7.53-15.636-7.53"/>
			<path style="fill:#FFEDD5;" d="M157.352,405.421c0,0,37.639,7.235,58.922-6.303l-0.008-3.451c0,0,1.811,0.753,2.237,2.814
				c0.426,2.061,3.306,24.376,3.417,27.048c0,0-32.503,7.296-32.887,3.909c-0.086-0.757-2.585-7.569-2.585-7.569
				s-1.774,6.338-4.334,9.121c0,0-18.913-7.825-26.533-9.07c0,0-3.473-18.782,0.662-22.894L157.352,405.421z"/>
			<path style="fill:none;stroke:#1C1C1B;stroke-width:0.75;stroke-miterlimit:10;" d="M155.912,405.422
				c0,0,25.597,5.332,50.406-1.227"/>
			<path style="fill:none;stroke:#1C1C1B;stroke-width:0.75;stroke-miterlimit:10;" d="M201.292,411.132
				c0,0-8.818,6.43-14.342,7.244c0,0-2.545,11.319-4.836,12.616c0,0-14.849-6.264-15.322-6.304"/>
		</g>
		<g>
			<path style="fill:#E1D7CD;" d="M159.224,346.681c0,0,4.104,26.829-5.953,33.569c-1.358,0.91-3.893,17.99-3.893,17.99
				s49.528,10.978,66.585-5.304c0,0,2.418-6.079-0.775-21.309c0,0-19.351,3.51-15.421-26.949l-9.71-2.403
				c0,0,4.204,19.421-2.342,20.221c-11.626,1.421-20.853-5.599-20.082-18.319C167.633,344.178,163.228,343.477,159.224,346.681z"/>
			<path style="fill:none;stroke:#1C1C1B;stroke-miterlimit:10;" d="M149.377,398.24c0,0,31.667,7.931,53.546,1.003"/>
			<path style="fill:none;stroke:#1C1C1B;stroke-width:0.75;stroke-miterlimit:10;" d="M167.633,344.178
				c0,0-1.904,16.229,14.141,18.417"/>
			<path style="fill:none;stroke:#1C1C1B;stroke-width:0.75;stroke-miterlimit:10;" d="M170.651,361.501
				c0,0,13.857,10.393,22.791-0.912"/>
			<path style="fill:#FFEDD5;" d="M170.858,382.24v-11.523c0,0,16.356,0.558,20.259-0.558l1.301,11.709
				C192.418,381.868,181.453,385.771,170.858,382.24z"/>
			<path style="fill:#CD6A4B;" d="M185.936,383.332c3.884-0.542,6.482-1.464,6.482-1.464l-1.301-11.709
				c-1.128,0.322-3.298,0.504-5.81,0.601L185.936,383.332z"/>
			<path style="fill:#006352;" d="M177.765,370.849c-3.815-0.028-6.907-0.133-6.907-0.133v11.523c2.212,0.737,4.439,1.147,6.58,1.34
				L177.765,370.849z"/>
		</g>
	</g>
	<g>
		<g>
			<path style="fill:#FF5238;" d="M472.476,386.201c0,0-4.771-6.885-8.797-7.431c-4.026-0.546-9.449,2.641-8.167,3.706
				c1.282,1.065,7.025,0.774,7.025,0.774l4.308,5.04L472.476,386.201z"/>
			<path style="fill:#FF5238;" d="M468.97,389.437c0,0-7.87-1.513-10.987,0.809c-3.117,2.322-4.691,8.13-3.102,8
				c1.589-0.13,5.32-4.174,5.32-4.174l6.318,0.562L468.97,389.437z"/>
			<path style="fill:#FF5238;" d="M468.559,396.692c0,0-8.19,1.76-10.24,5.267c-2.05,3.508-1.191,9.738,0.284,8.964
				c1.476-0.774,3.413-6.189,3.413-6.189l6.308-2.041L468.559,396.692z"/>
			<path style="fill:#FF5238;" d="M508.152,396.997c0,0,7.413-3.901,11.235-2.523c3.822,1.377,7.158,6.709,5.529,7.061
				c-1.629,0.352-6.587-2.561-6.587-2.561l-6.15,2.478L508.152,396.997z"/>
			<path style="fill:#FF5238;" d="M510.671,401.858c0,0,7.678,2.296,9.369,5.796c1.691,3.5,0.402,9.378-0.947,8.528
				c-1.349-0.85-2.789-6.16-2.789-6.16l-5.863-2.423L510.671,401.858z"/>
			<path style="fill:#FF5238;" d="M507.664,406.868c0,0,6.449,5.346,6.646,9.404c0.197,4.058-3.445,9.186-4.395,7.818
				c-0.951-1.369-0.166-7.066-0.166-7.066l-4.65-4.726L507.664,406.868z"/>
			<path style="fill:#FF633B;" d="M472.429,380.818c12.641-9.232,36.02,4.644,39.394,16.597
				c3.375,11.953-3.733,18.749-25.052,18.404C465.453,415.473,459.787,390.05,472.429,380.818z"/>
			<g>
				<path style="fill:#FF5238;" d="M484.131,360.702c1.919,0.732,2.462,7.152-2.224,8.481
					C470.648,372.376,482.212,359.97,484.131,360.702z"/>
				<path style="fill:#FF633B;" d="M467.329,359.443c5.078-7.006,20.451-4.858,19.257-2.818c-1.194,2.04-9.17,3.634-8.736,6.235
					c0.434,2.602,8.794,4.363,1.203,9.312C471.461,377.122,462.251,366.449,467.329,359.443z"/>
				<path style="fill:#FF633B;" d="M471.062,367.106c0,0-3.891,9.658,1.047,16.264l4.269-1.611c0,0-3.822-5.171-1.637-11.914
					L471.062,367.106z"/>
			</g>
			<g>
				<path style="fill:#FF5238;" d="M513.817,368.382c-1.921-0.727-6.589,3.714-3.967,7.819
					C516.15,386.064,515.738,369.109,513.817,368.382z"/>
				<path style="fill:#FF633B;" d="M526.445,378.8c0.854-8.611-12.069-17.21-12.53-14.891c-0.462,2.319,4.445,8.805,2.393,10.462
					c-2.052,1.658-9.473-2.575-7.082,6.166C511.619,389.277,525.592,387.411,526.445,378.8z"/>
				<path style="fill:#FF633B;" d="M518.567,382.052c0,0-3.502,9.805-11.581,11.468l-2.123-4.038c0,0,6.291-1.33,9.133-7.823
					L518.567,382.052z"/>
			</g>
			<g>
				<path style="fill:#FFEDD5;" d="M485.385,383.46L485.385,383.46c2.726,0.649,5.471-1.079,6.131-3.861l0.633-2.666
					c0.66-2.781-1.014-5.562-3.74-6.211l0,0c-2.726-0.649-5.471,1.079-6.131,3.86l-0.633,2.666
					C480.985,380.03,482.659,382.811,485.385,383.46"/>
				<path style="fill:#1C1C1B;" d="M482.278,374.583c0.357-1.505,1.327-2.697,2.572-3.376c0.424-0.051,0.854-0.034,1.28,0.068
					c2.405,0.573,3.772,3.491,3.054,6.517c-0.719,3.027-3.251,5.016-5.656,4.443c-0.218-0.052-0.425-0.129-0.625-0.218
					c-1.147-1.22-1.68-2.993-1.258-4.768L482.278,374.583z"/>
			</g>
			<g>
				<path style="fill:#FFEDD5;" d="M498.288,388.209L498.288,388.209c2.726,0.649,5.471-1.079,6.131-3.861l0.633-2.666
					c0.66-2.781-1.014-5.562-3.74-6.211l0,0c-2.726-0.649-5.471,1.079-6.131,3.86l-0.633,2.666
					C493.887,384.779,495.562,387.559,498.288,388.209"/>
				<path style="fill:#1C1C1B;" d="M495.181,379.331c0.357-1.505,1.327-2.697,2.572-3.376c0.424-0.051,0.854-0.034,1.28,0.068
					c2.405,0.573,3.772,3.491,3.054,6.517c-0.719,3.027-3.251,5.016-5.656,4.443c-0.218-0.052-0.425-0.129-0.625-0.218
					c-1.147-1.22-1.68-2.993-1.258-4.768L495.181,379.331z"/>
			</g>
			<path style="fill:#FFEDD5;" d="M493.31,387.185c-2.56-0.839-3.116,1.112-4.128,0.677c-1.012-0.435-1.848-2.353-3.566-1.555
				c-1.718,0.797-2.469,6.663,4.652,6.938C495.25,393.437,495.869,388.024,493.31,387.185z"/>
			<path style="fill:none;stroke:#1C1C1B;stroke-miterlimit:10;" d="M474.13,411.474c0,0,4.787-11.079,12.593-9.133
				c7.806,1.946,8.274,13.402,8.274,13.402"/>
			<path style="fill:none;stroke:#1C1C1B;stroke-miterlimit:10;" d="M477.716,405.786c0,0,6.688,4.576,16.346,4.078"/>
			<line style="fill:none;stroke:#1C1C1B;stroke-miterlimit:10;" x1="485.147" y1="409.035" x2="483.821" y2="415.886"/>
			<path style="fill:none;stroke:#1C1C1B;stroke-miterlimit:10;" d="M468.404,385.736c0,0-6.805,8.169,1.692,22.198
				c6.602,10.9,38.18,11.373,41.868-1.658"/>
			<path style="fill:none;stroke:#1C1C1B;stroke-miterlimit:10;" d="M466.357,366.088c0,0,1.144,8.719,10.696,7.032"/>
			<path style="fill:none;stroke:#1C1C1B;stroke-miterlimit:10;" d="M509.734,382.198c0,0,2.208,3.16,3.808,3.066"/>
			<path style="fill:none;stroke:#1C1C1B;stroke-miterlimit:10;" d="M514.958,385.706c0,0,6.446,1.969,9.726-3.195"/>
			<path style="fill:none;stroke:#FFEDD5;stroke-miterlimit:10;" d="M483.127,355.699c0.72,0.118,1.452,0.286,2.192,0.511"/>
			<path style="fill:none;stroke:#FFEDD5;stroke-miterlimit:10;" d="M469.339,358.595c0,0,5.12-3.38,11.666-3.112"/>
			<path style="fill:none;stroke:#FFEDD5;stroke-miterlimit:10;" d="M517.934,366.162c2.334,1.836,5.531,4.927,6.386,8.598"/>
			<path style="fill:none;stroke:#FFEDD5;stroke-miterlimit:10;" d="M515.35,364.356c0,0,0.474,0.277,1.206,0.786"/>
			<path style="fill:none;stroke:#FFEDD5;stroke-miterlimit:10;" d="M472.563,381.931c0,0,3.283-3.015,6.975-2.943"/>
		</g>
		<g>
			<g>
				<path style="fill:#FFB700;" d="M270.36,444.797c0,0-4.037-13.086-0.557-13.642c3.48-0.557,7.517,10.58,10.023,9.466
					c2.506-1.114,8.631-9.466,11.276-6.264c2.645,3.202-3.898,11.137-2.088,12.946c1.81,1.81,9.745,7.378,6.96,10.441
					c-2.784,3.063-11.276-4.315-14.199-1.114c-2.923,3.202-3.341,11.972-7.796,10.162c-4.455-1.81,0.557-13.085-3.202-12.668
					s-13.503,2.784-13.086-1.81C258.109,447.72,270.36,444.797,270.36,444.797z"/>
				<path style="fill:none;stroke:#1C1C1B;stroke-width:0.75;stroke-miterlimit:10;" d="M257.692,452.314
					c0,0-0.045,2.892,3.735,2.786c3.78-0.105,10.395-2.625,10.605-0.525c0.21,2.1-1.05,9.66,0.315,11.13"/>
				<path style="fill:none;stroke:#1C1C1B;stroke-width:0.75;stroke-miterlimit:10;" d="M278.962,462.766c0,0,0.84-6.93,3.675-6.93
					c2.835,0,10.08,2.835,11.76,2.625"/>
				<path style="fill:none;stroke:#1C1C1B;stroke-width:0.75;stroke-miterlimit:10;" d="M291.457,437.88c0,0-3.675,7.035-2.52,8.715
					c1.155,1.68,4.41,4.2,4.41,4.2"/>
			</g>
			<path style="fill:none;stroke:#FFEDD5;stroke-miterlimit:10;" d="M259.631,451.883c0,0,8.75-3.92,14.07-3.5"/>
			<path style="fill:none;stroke:#FFEDD5;stroke-miterlimit:10;" d="M290.22,435.013c0,0-6.02,4.13-7.63,8.82"/>
			<path style="fill:none;stroke:#FFEDD5;stroke-miterlimit:10;" d="M274.4,464.972c0,0-1.05-10.15,1.89-13.72"/>
			<path style="fill:none;stroke:#FFEDD5;stroke-miterlimit:10;" d="M283.01,448.803c0,0,10.36,3.01,12.18,6.65"/>
			<path style="fill:none;stroke:#FFEDD5;stroke-miterlimit:10;" d="M270.62,432.633c0.21-0.07,6.02,8.05,6.72,10.99"/>
			<path style="fill:none;stroke:#1C1C1B;stroke-width:0.75;stroke-miterlimit:10;" d="M279.09,445.933
				c2.52,0.63,2.31,3.57-0.63,3.01C275.52,448.383,276.57,445.303,279.09,445.933z"/>
		</g>
		<g>
			<path style="fill:#FFEDD5;" d="M697.719,454.294c0,0-1.489-5.956,1.241-6.328c2.73-0.372,13.153,5.46,12.036,8.189
				c-1.117,2.73-6.7,3.847-6.7,3.847s12.532,20.474-2.606,23.327c-15.138,2.854-29.532-13.525-27.919-23.576
				C675.384,449.703,697.719,454.294,697.719,454.294z"/>
			<path style="fill:none;stroke:#1C1C1B;stroke-miterlimit:10;" d="M677.23,454.951c0,0-4.711,1.801-3.325,8.313
				s9.006,18.011,21.614,19.813"/>
			<path style="fill:none;stroke:#1C1C1B;stroke-miterlimit:10;" d="M676.676,461.047c0,0,15.933-5.542,21.614-5.819"/>
			<path style="fill:none;stroke:#1C1C1B;stroke-miterlimit:10;" d="M702.584,459.246c0,0,1.94,11.915,0.554,19.397"/>
			<path style="fill:none;stroke:#1C1C1B;stroke-miterlimit:10;" d="M698.982,458.553c0,0-10.253,11.222-11.777,14.686"/>
		</g>
		<g>
			<path style="fill:#FF5238;" d="M109.752,363.903c-0.205-0.775-14.549,4.75-31.275,11.485c0.603,2.633,0.939,5.992-0.674,7.608
				c-2.87,2.875-7.776,2.444-7.776,2.444s-1.945,3.938-5.236,4.158c-3.291,0.22-5.227-3.404-5.227-3.404s-1.442,2.346-3.275,1.276
				c-0.661-0.386-1.21-1.321-1.645-2.357c-15.49,6.385-28.199,11.727-28.199,11.727s23.241,40.748,60.378,20.411
				C114.46,402.115,110.246,365.772,109.752,363.903z"/>
			<path style="fill:#E1D7CD;" d="M109.752,363.903c-0.113-0.428-4.557,1.073-11.332,3.637c2.155,16.809,0.708,36.834-15.976,43.903
				c-26.43,11.198-45.051-10.881-49.716-17.234c-3.922,1.638-6.284,2.631-6.284,2.631s23.241,40.748,60.378,20.411
				C114.46,402.115,110.246,365.772,109.752,363.903z"/>
			<path style="fill:#006352;" d="M109.752,363.903c-0.092-0.35-3.068,0.585-7.843,2.335c0.776,14.556-0.682,44.789-25.456,49.441
				c-26.3,4.938-41.554-12.961-46.582-20.276c-2.179,0.912-3.427,1.436-3.427,1.436s23.241,40.748,60.378,20.411
				C114.46,402.115,110.246,365.772,109.752,363.903z"/>
			
				<line style="fill:none;stroke:#1C1C1B;stroke-width:2;stroke-miterlimit:10;" x1="55.358" y1="395.775" x2="54.886" y2="398.341"/>
			
				<line style="fill:none;stroke:#1C1C1B;stroke-width:2;stroke-miterlimit:10;" x1="82.784" y1="382.647" x2="84.026" y2="383.107"/>
			
				<line style="fill:none;stroke:#1C1C1B;stroke-width:2;stroke-miterlimit:10;" x1="76.128" y1="389.472" x2="77.018" y2="390.937"/>
			
				<line style="fill:none;stroke:#1C1C1B;stroke-width:2;stroke-miterlimit:10;" x1="70.124" y1="399.479" x2="70.313" y2="401.128"/>
			
				<line style="fill:none;stroke:#1C1C1B;stroke-width:2;stroke-miterlimit:10;" x1="86.072" y1="391.398" x2="86.991" y2="392.128"/>
			
				<line style="fill:none;stroke:#1C1C1B;stroke-width:2;stroke-miterlimit:10;" x1="81.08" y1="402.266" x2="81.888" y2="403.671"/>
			
				<line style="fill:none;stroke:#1C1C1B;stroke-width:2;stroke-miterlimit:10;" x1="45.494" y1="393.071" x2="43.68" y2="394.214"/>
			
				<line style="fill:none;stroke:#1C1C1B;stroke-width:2;stroke-miterlimit:10;" x1="90.647" y1="376.282" x2="92.604" y2="376.042"/>
		</g>
		<g>
			<path style="fill:#006352;" d="M682.707,371.565c0,0,37.756-35.343,39.483-32.663c1.726,2.68,13.525,47.039,9.174,50.663
				C727.012,393.189,694.532,397.711,682.707,371.565z"/>
			<path style="fill:#FF5238;" d="M732.314,384.829c-0.212-12.363-8.682-43.688-10.125-45.928
				c-1.568-2.434-32.839,26.48-38.579,31.821C692.733,378.476,712.874,392.463,732.314,384.829z"/>
			<path style="fill:#E1D7CD;" d="M685.975,368.531c-0.997,0.921-1.804,1.67-2.365,2.192c9.122,7.753,29.264,21.74,48.704,14.107
				c-0.019-1.143-0.111-2.451-0.259-3.88C712.143,389.102,694.204,376.126,685.975,368.531z"/>
			
				<line style="fill:none;stroke:#1C1C1B;stroke-width:2;stroke-miterlimit:10;" x1="727.016" y1="367.064" x2="727.674" y2="369.602"/>
			
				<line style="fill:none;stroke:#1C1C1B;stroke-width:2;stroke-miterlimit:10;" x1="704.297" y1="359.284" x2="702.96" y2="360.724"/>
			
				<line style="fill:none;stroke:#1C1C1B;stroke-width:2;stroke-miterlimit:10;" x1="715.854" y1="356.505" x2="715.412" y2="357.888"/>
			
				<line style="fill:none;stroke:#1C1C1B;stroke-width:2;stroke-miterlimit:10;" x1="720.4" y1="369.923" x2="719.552" y2="371.862"/>
			
				<line style="fill:none;stroke:#1C1C1B;stroke-width:2;stroke-miterlimit:10;" x1="705.252" y1="368.087" x2="703.922" y2="370.1"/>
			
				<line style="fill:none;stroke:#1C1C1B;stroke-width:2;stroke-miterlimit:10;" x1="711.298" y1="372.65" x2="710.264" y2="374.453"/>
			
				<line style="fill:none;stroke:#1C1C1B;stroke-width:2;stroke-miterlimit:10;" x1="720.258" y1="346.789" x2="719.053" y2="349.603"/>
		</g>
	</g>
</g>
</svg>
